<svg width="100" height="100" viewBox="0 0 100 100" fill="none" xmlns="http://www.w3.org/2000/svg">
<rect x="21" y="29" width="59" height="42.1429" rx="7.86667" fill="url(#paint0_linear_187_70)"/>
<path d="M48.567 10.1859C49.3984 9.49785 50.6016 9.49785 51.433 10.1859L74.1919 29.0208C75.8143 30.3635 74.8648 33 72.7588 33H27.2412C25.1352 33 24.1857 30.3635 25.8082 29.0208L48.567 10.1859Z" fill="url(#paint1_linear_187_70)"/>
<path d="M48.9373 52.1348C49.7866 52.8833 51.06 52.8833 51.9093 52.1348L73.6967 32.9354C75.2508 31.5658 74.2822 29.0015 72.2107 29.0015H28.6359C26.5644 29.0015 25.5958 31.5658 27.1499 32.9354L48.9373 52.1348Z" fill="white"/>
<path d="M37.2952 35.1819C37.1401 35.1819 37.0143 35.3077 37.0143 35.4629C37.0143 35.6181 37.1401 35.7438 37.2952 35.7438V35.4629V35.1819ZM37.3952 35.4629L37.5075 35.2053L37.4538 35.1819H37.3952V35.4629ZM38.2434 35.4231L38.098 35.6635L38.2434 35.4231ZM38.4542 35.5506L38.3087 35.7909L38.4542 35.5506ZM38.6649 35.5657L38.7825 35.8209L38.6649 35.5657ZM38.8756 35.4686L38.758 35.2135L38.8756 35.4686ZM39.297 35.4421L39.2774 35.7224H39.2774L39.297 35.4421ZM39.9292 35.4438L40.0346 35.7043L39.9292 35.4438ZM40.0345 35.4012L39.9291 35.1408L40.0345 35.4012ZM40.5613 35.3095L40.5557 35.0286L40.5613 35.3095ZM40.772 35.3621L40.6426 35.6115L40.772 35.3621ZM40.9827 35.4715L41.1122 35.2222L40.9827 35.4715ZM41.1934 35.5264L41.1929 35.8073L41.1934 35.5264ZM41.2988 35.5266L41.2993 35.2456L41.2988 35.5266ZM41.4042 35.5268L41.4037 35.8077L41.4042 35.5268ZM41.6149 35.5121L41.654 35.7903L41.6149 35.5121ZM41.8256 35.4824L41.8648 35.7607L41.8256 35.4824ZM42.0363 35.4276L41.9364 35.1649L42.0363 35.4276ZM42.247 35.3474L42.3469 35.61L42.247 35.3474ZM42.4577 35.3294L42.5153 35.0544L42.4577 35.3294ZM42.5631 35.3515L42.5055 35.6265L42.5631 35.3515ZM42.6684 35.3735L42.726 35.0986L42.6684 35.3735ZM43.3006 35.3974L43.2072 35.6624L43.3006 35.3974ZM43.4059 35.4345L43.4993 35.1696L43.4059 35.4345ZM43.5113 35.4717L43.4179 35.7366L43.5113 35.4717ZM43.9327 35.5631L43.8851 35.84L43.9327 35.5631ZM44.1434 35.5119L43.989 35.2772L44.1434 35.5119ZM44.3542 35.3733L44.1997 35.1386L44.3542 35.3733ZM44.5649 35.3783L44.727 35.1488L44.5649 35.3783ZM44.7756 35.5272L44.9377 35.2977L44.7756 35.5272ZM44.9863 35.6006L44.9836 35.3196L44.9863 35.6006ZM45.4077 35.5709L45.3389 35.2985L45.4077 35.5709ZM45.5131 35.5442L45.582 35.8166L45.5131 35.5442ZM45.6184 35.5176L45.5496 35.2452L45.6184 35.5176ZM45.8292 35.5029L45.7974 35.7821L45.8292 35.5029ZM45.9345 35.5149L45.9663 35.2358L45.9345 35.5149ZM46.0399 35.5269L46.0081 35.8061L46.0399 35.5269ZM46.2506 35.4999L46.153 35.2364L46.2506 35.4999ZM46.3559 35.4608L46.4535 35.7243L46.3559 35.4608ZM46.4613 35.4218L46.3637 35.1584L46.4613 35.4218ZM46.8827 35.3738L46.8747 35.0929L46.8827 35.3738ZM47.0934 35.4273L47.2262 35.1796L47.0934 35.4273ZM47.3042 35.5402L47.1714 35.7878L47.3042 35.5402ZM47.9363 35.5025L47.9736 35.224L47.9363 35.5025ZM48.0417 35.5166L48.0043 35.795L48.0417 35.5166ZM48.147 35.5307L48.1844 35.2523L48.147 35.5307ZM48.5684 35.5407L48.5647 35.2597L48.5684 35.5407ZM48.7792 35.5318L48.7592 35.2515L48.7792 35.5318ZM48.8845 35.5243L48.9044 35.8045L48.8845 35.5243ZM48.9899 35.5168L48.97 35.2366L48.9899 35.5168ZM49.2006 35.466L49.0937 35.2061L49.2006 35.466ZM49.3059 35.4226L49.4128 35.6825L49.3059 35.4226ZM49.4113 35.3793L49.3044 35.1195L49.4113 35.3793ZM50.0434 35.5214L50.077 35.2424L50.0434 35.5214ZM50.2542 35.5467L50.2206 35.8257L50.2542 35.5467ZM50.8863 35.3506L50.822 35.6241L50.8863 35.3506ZM51.097 35.4002L51.0327 35.6737L51.097 35.4002ZM51.3077 35.4388L51.3445 35.1603L51.3077 35.4388ZM51.5184 35.4667L51.4816 35.7452L51.5184 35.4667ZM52.1506 35.5272L52.2179 35.2545L52.1506 35.5272ZM52.3613 35.5792L52.4286 35.3065L52.3613 35.5792ZM52.572 35.5566L52.6897 35.8118L52.572 35.5566ZM52.6774 35.508L52.5597 35.2529L52.6774 35.508ZM52.7827 35.4594L52.9004 35.7146L52.7827 35.4594ZM52.9934 35.4321L53.0491 35.1567L52.9934 35.4321ZM53.2042 35.4747L53.2598 35.1993L53.2042 35.4747ZM53.4149 35.506L53.4415 35.2263L53.4149 35.506ZM53.6256 35.526L53.599 35.8057L53.6256 35.526ZM53.8363 35.5336L53.8297 35.2527L53.8363 35.5336ZM54.2577 35.5086L54.2114 35.2315L54.2577 35.5086ZM54.4684 35.4733L54.5148 35.7505L54.4684 35.4733ZM55.1006 35.5587L55.209 35.8179L55.1006 35.5587ZM55.3113 35.4706L55.2029 35.2114L55.3113 35.4706ZM56.3649 35.4062L56.4852 35.1523L56.3649 35.4062ZM56.5756 35.5061L56.4552 35.76L56.5756 35.5061ZM57.4184 35.5441L57.4119 35.825L57.4184 35.5441ZM58.472 35.5153L58.6108 35.7596L58.472 35.5153ZM58.6827 35.3956L58.5439 35.1513L58.6827 35.3956ZM59.5256 35.4023L59.4598 35.1292L59.5256 35.4023ZM59.7363 35.4207L59.844 35.1612L59.7363 35.4207ZM59.947 35.5081L59.8393 35.7676L59.947 35.5081ZM60.3684 35.3954L60.2439 35.1436L60.3684 35.3954ZM60.5792 35.4027L60.4412 35.6475L60.5792 35.4027ZM60.7899 35.5215L60.9278 35.2768L60.7899 35.5215ZM61.0006 35.5563L60.9368 35.2827V35.2827L61.0006 35.5563ZM61.422 35.5085L61.4889 35.2356L61.422 35.5085ZM61.6327 35.5602L61.5658 35.833L61.6327 35.5602ZM62.6863 35.446L62.7004 35.1654L62.6863 35.446ZM62.897 35.4566L62.8829 35.7372L62.897 35.4566ZM63.4238 35.4689H63.7048V35.2044L63.4407 35.1885L63.4238 35.4689ZM63.3238 35.4629V35.1819L63.3069 35.7433L63.3238 35.4629ZM63.4238 35.7438C63.579 35.7438 63.7048 35.6181 63.7048 35.4629C63.7048 35.3077 63.579 35.1819 63.4238 35.1819V35.4629V35.7438ZM37.2952 35.4629V35.7438H37.3952V35.4629V35.1819H37.2952V35.4629ZM37.3952 35.4629L37.283 35.7204L37.4437 35.7905L37.5559 35.5329L37.6682 35.2754L37.5075 35.2053L37.3952 35.4629ZM37.5559 35.5329L37.4437 35.7905C37.5945 35.8562 37.7851 35.8879 37.9626 35.7853L37.822 35.5421L37.6814 35.2989C37.6877 35.2952 37.6946 35.2925 37.7013 35.2909C37.7077 35.2894 37.7118 35.2894 37.7125 35.2895C37.7129 35.2895 37.7096 35.2894 37.702 35.2875C37.6943 35.2855 37.6832 35.2819 37.6682 35.2754L37.5559 35.5329ZM37.822 35.5421L37.9626 35.7853L38.068 35.7244L37.9274 35.4812L37.7868 35.2379L37.6814 35.2989L37.822 35.5421ZM37.9274 35.4812L38.068 35.7244L38.1733 35.6635L38.0327 35.4203L37.8921 35.177L37.7868 35.2379L37.9274 35.4812ZM38.0327 35.4203L38.1733 35.6635C38.1715 35.6646 38.1573 35.6718 38.1343 35.6714C38.1238 35.6713 38.1147 35.6696 38.1078 35.6674C38.1011 35.6654 38.0978 35.6634 38.098 35.6635L38.2434 35.4231L38.3889 35.1827C38.3183 35.14 38.2348 35.1108 38.1418 35.1096C38.0487 35.1083 37.9642 35.1354 37.8921 35.177L38.0327 35.4203ZM38.2434 35.4231L38.098 35.6635L38.2034 35.7272L38.3488 35.4868L38.4942 35.2464L38.3889 35.1827L38.2434 35.4231ZM38.3488 35.4868L38.2034 35.7272L38.3087 35.7909L38.4542 35.5506L38.5996 35.3102L38.4942 35.2464L38.3488 35.4868ZM38.4542 35.5506L38.3087 35.7909C38.4529 35.8782 38.6215 35.8951 38.7825 35.8209L38.6649 35.5657L38.5473 35.3106C38.5509 35.3089 38.563 35.3048 38.5797 35.306C38.5957 35.3071 38.603 35.3122 38.5996 35.3102L38.4542 35.5506ZM38.6649 35.5657L38.7825 35.8209L38.8878 35.7723L38.7702 35.5172L38.6526 35.262L38.5473 35.3106L38.6649 35.5657ZM38.7702 35.5172L38.8878 35.7723L38.9932 35.7238L38.8756 35.4686L38.758 35.2135L38.6526 35.262L38.7702 35.5172ZM38.8756 35.4686L38.9932 35.7238C39.0249 35.7092 39.0481 35.7064 39.0667 35.7077L39.0863 35.4274L39.1059 35.1471C38.984 35.1386 38.8668 35.1633 38.758 35.2135L38.8756 35.4686ZM39.0863 35.4274L39.0667 35.7077L39.1721 35.715L39.1917 35.4348L39.2112 35.1545L39.1059 35.1471L39.0863 35.4274ZM39.1917 35.4348L39.1721 35.715L39.2774 35.7224L39.297 35.4421L39.3166 35.1619L39.2112 35.1545L39.1917 35.4348ZM39.297 35.4421L39.2774 35.7224C39.346 35.7272 39.4146 35.7326 39.4832 35.7386L39.5077 35.4587L39.5323 35.1789C39.4604 35.1725 39.3885 35.1669 39.3166 35.1619L39.297 35.4421ZM39.5077 35.4587L39.4832 35.7386L39.5885 35.7479L39.6131 35.468L39.6377 35.1881L39.5323 35.1789L39.5077 35.4587ZM39.6131 35.468L39.5885 35.7479L39.6939 35.7571L39.7184 35.4772L39.743 35.1974L39.6377 35.1881L39.6131 35.468ZM39.7184 35.4772L39.6939 35.7571C39.8116 35.7674 39.9263 35.7481 40.0346 35.7043L39.9292 35.4438L39.8237 35.1834C39.7915 35.1964 39.7657 35.1994 39.743 35.1974L39.7184 35.4772ZM39.9292 35.4438L40.0346 35.7043L40.1399 35.6616L40.0345 35.4012L39.9291 35.1408L39.8237 35.1834L39.9292 35.4438ZM40.0345 35.4012L40.1399 35.6616L40.2453 35.6189L40.1399 35.3585L40.0344 35.0981L39.9291 35.1408L40.0345 35.4012ZM40.1399 35.3585L40.2453 35.6189C40.2863 35.6023 40.3228 35.5953 40.3562 35.5946L40.3506 35.3138L40.3449 35.0329C40.2379 35.035 40.1339 35.0578 40.0344 35.0981L40.1399 35.3585ZM40.3506 35.3138L40.3562 35.5946L40.4616 35.5925L40.4559 35.3116L40.4503 35.0307L40.3449 35.0329L40.3506 35.3138ZM40.4559 35.3116L40.4616 35.5925L40.5669 35.5904L40.5613 35.3095L40.5557 35.0286L40.4503 35.0307L40.4559 35.3116ZM40.5613 35.3095L40.5669 35.5904C40.5845 35.5901 40.6086 35.5938 40.6426 35.6115L40.772 35.3621L40.9015 35.1128C40.7949 35.0574 40.6785 35.0262 40.5557 35.0286L40.5613 35.3095ZM40.772 35.3621L40.6426 35.6115L40.7479 35.6662L40.8774 35.4168L41.0068 35.1675L40.9015 35.1128L40.772 35.3621ZM40.8774 35.4168L40.7479 35.6662L40.8533 35.7209L40.9827 35.4715L41.1122 35.2222L41.0068 35.1675L40.8774 35.4168ZM40.9827 35.4715L40.8533 35.7209C40.9582 35.7754 41.0724 35.8071 41.1929 35.8073L41.1934 35.5264L41.1939 35.2454C41.174 35.2454 41.1477 35.2406 41.1122 35.2222L40.9827 35.4715ZM41.1934 35.5264L41.1929 35.8073L41.2983 35.8075L41.2988 35.5266L41.2993 35.2456L41.1939 35.2454L41.1934 35.5264ZM41.2988 35.5266L41.2983 35.8075L41.4037 35.8077L41.4042 35.5268L41.4047 35.2458L41.2993 35.2456L41.2988 35.5266ZM41.4042 35.5268L41.4037 35.8077C41.4873 35.8079 41.5708 35.802 41.654 35.7903L41.6149 35.5121L41.5757 35.2339C41.5185 35.242 41.4615 35.2459 41.4047 35.2458L41.4042 35.5268ZM41.6149 35.5121L41.654 35.7903L41.7594 35.7755L41.7202 35.4973L41.6811 35.2191L41.5757 35.2339L41.6149 35.5121ZM41.7202 35.4973L41.7594 35.7755L41.8648 35.7607L41.8256 35.4824L41.7864 35.2042L41.6811 35.2191L41.7202 35.4973ZM41.8256 35.4824L41.8648 35.7607C41.9569 35.7477 42.0475 35.7239 42.1362 35.6902L42.0363 35.4276L41.9364 35.1649C41.8846 35.1846 41.8347 35.1974 41.7864 35.2042L41.8256 35.4824ZM42.0363 35.4276L42.1362 35.6902L42.2415 35.6501L42.1417 35.3875L42.0418 35.1249L41.9364 35.1649L42.0363 35.4276ZM42.1417 35.3875L42.2415 35.6501L42.3469 35.61L42.247 35.3474L42.1472 35.0848L42.0418 35.1249L42.1417 35.3875ZM42.247 35.3474L42.3469 35.61C42.3694 35.6015 42.385 35.6013 42.4001 35.6044L42.4577 35.3294L42.5153 35.0544C42.3899 35.0282 42.2651 35.04 42.1472 35.0848L42.247 35.3474ZM42.4577 35.3294L42.4001 35.6044L42.5055 35.6265L42.5631 35.3515L42.6207 35.0765L42.5153 35.0544L42.4577 35.3294ZM42.5631 35.3515L42.5055 35.6265L42.6109 35.6485L42.6684 35.3735L42.726 35.0986L42.6207 35.0765L42.5631 35.3515ZM42.6684 35.3735L42.6109 35.6485C42.7072 35.6687 42.8048 35.6749 42.9026 35.6667L42.8792 35.3868L42.8557 35.1068C42.8131 35.1104 42.7701 35.1078 42.726 35.0986L42.6684 35.3735ZM42.8792 35.3868L42.9026 35.6667L43.008 35.6579L42.9845 35.3779L42.961 35.098L42.8557 35.1068L42.8792 35.3868ZM42.9845 35.3779L43.008 35.6579L43.1133 35.6491L43.0899 35.3691L43.0664 35.0891L42.961 35.098L42.9845 35.3779ZM43.0899 35.3691L43.1133 35.6491C43.1418 35.6467 43.1722 35.6501 43.2072 35.6624L43.3006 35.3974L43.394 35.1324C43.2884 35.0952 43.1784 35.0797 43.0664 35.0891L43.0899 35.3691ZM43.3006 35.3974L43.2072 35.6624L43.3125 35.6995L43.4059 35.4345L43.4993 35.1696L43.394 35.1324L43.3006 35.3974ZM43.4059 35.4345L43.3125 35.6995L43.4179 35.7366L43.5113 35.4717L43.6047 35.2067L43.4993 35.1696L43.4059 35.4345ZM43.5113 35.4717L43.4179 35.7366C43.5024 35.7664 43.5879 35.7889 43.6744 35.8038L43.722 35.5269L43.7696 35.25C43.7156 35.2407 43.6607 35.2264 43.6047 35.2067L43.5113 35.4717ZM43.722 35.5269L43.6744 35.8038L43.7798 35.8219L43.8274 35.545L43.875 35.2681L43.7696 35.25L43.722 35.5269ZM43.8274 35.545L43.7798 35.8219L43.8851 35.84L43.9327 35.5631L43.9803 35.2863L43.875 35.2681L43.8274 35.545ZM43.9327 35.5631L43.8851 35.84C44.038 35.8663 44.1795 35.8245 44.2979 35.7466L44.1434 35.5119L43.989 35.2772C43.9765 35.2855 43.9708 35.2866 43.9717 35.2864C43.9721 35.2863 43.9734 35.286 43.9754 35.286C43.9774 35.2859 43.9791 35.2861 43.9803 35.2863L43.9327 35.5631ZM44.1434 35.5119L44.2979 35.7466L44.4032 35.6773L44.2488 35.4426L44.0943 35.2079L43.989 35.2772L44.1434 35.5119ZM44.2488 35.4426L44.4032 35.6773L44.5086 35.6079L44.3542 35.3733L44.1997 35.1386L44.0943 35.2079L44.2488 35.4426ZM44.3542 35.3733L44.5086 35.6079C44.5055 35.61 44.4853 35.6215 44.4527 35.6207C44.4378 35.6204 44.4251 35.6174 44.4158 35.614C44.4069 35.6107 44.4025 35.6076 44.4028 35.6078L44.5649 35.3783L44.727 35.1488C44.6566 35.0992 44.5685 35.0614 44.4663 35.059C44.3635 35.0565 44.273 35.0903 44.1997 35.1386L44.3542 35.3733ZM44.5649 35.3783L44.4028 35.6078L44.5081 35.6822L44.6702 35.4527L44.8323 35.2233L44.727 35.1488L44.5649 35.3783ZM44.6702 35.4527L44.5081 35.6822L44.6135 35.7566L44.7756 35.5272L44.9377 35.2977L44.8323 35.2233L44.6702 35.4527ZM44.7756 35.5272L44.6135 35.7566C44.7209 35.8325 44.8476 35.8829 44.989 35.8815L44.9863 35.6006L44.9836 35.3196C44.9827 35.3196 44.9797 35.3196 44.9734 35.3174C44.9665 35.315 44.9546 35.3096 44.9377 35.2977L44.7756 35.5272ZM44.9863 35.6006L44.989 35.8815L45.0944 35.8805L45.0917 35.5995L45.089 35.3186L44.9836 35.3196L44.9863 35.6006ZM45.0917 35.5995L45.0944 35.8805L45.1997 35.8795L45.197 35.5985L45.1943 35.3176L45.089 35.3186L45.0917 35.5995ZM45.197 35.5985L45.1997 35.8795C45.293 35.8786 45.3854 35.8663 45.4766 35.8433L45.4077 35.5709L45.3389 35.2985C45.2896 35.311 45.2415 35.3171 45.1943 35.3176L45.197 35.5985ZM45.4077 35.5709L45.4766 35.8433L45.582 35.8166L45.5131 35.5442L45.4442 35.2719L45.3389 35.2985L45.4077 35.5709ZM45.5131 35.5442L45.582 35.8166L45.6873 35.79L45.6184 35.5176L45.5496 35.2452L45.4442 35.2719L45.5131 35.5442ZM45.6184 35.5176L45.6873 35.79C45.7255 35.7803 45.7617 35.778 45.7974 35.7821L45.8292 35.5029L45.8609 35.2238C45.7562 35.2119 45.6518 35.2194 45.5496 35.2452L45.6184 35.5176ZM45.8292 35.5029L45.7974 35.7821L45.9028 35.7941L45.9345 35.5149L45.9663 35.2358L45.8609 35.2238L45.8292 35.5029ZM45.9345 35.5149L45.9028 35.7941L46.0081 35.8061L46.0399 35.5269L46.0716 35.2478L45.9663 35.2358L45.9345 35.5149ZM46.0399 35.5269L46.0081 35.8061C46.1247 35.8193 46.2392 35.8037 46.3482 35.7633L46.2506 35.4999L46.153 35.2364C46.1215 35.2481 46.0955 35.2505 46.0716 35.2478L46.0399 35.5269ZM46.2506 35.4999L46.3482 35.7633L46.4535 35.7243L46.3559 35.4608L46.2584 35.1974L46.153 35.2364L46.2506 35.4999ZM46.3559 35.4608L46.4535 35.7243L46.5589 35.6853L46.4613 35.4218L46.3637 35.1584L46.2584 35.1974L46.3559 35.4608ZM46.4613 35.4218L46.5589 35.6853C46.6023 35.6692 46.6423 35.6617 46.68 35.6606L46.672 35.3798L46.664 35.099C46.5612 35.1019 46.4608 35.1224 46.3637 35.1584L46.4613 35.4218ZM46.672 35.3798L46.68 35.6606L46.7854 35.6576L46.7774 35.3768L46.7694 35.0959L46.664 35.099L46.672 35.3798ZM46.7774 35.3768L46.7854 35.6576L46.8907 35.6546L46.8827 35.3738L46.8747 35.0929L46.7694 35.0959L46.7774 35.3768ZM46.8827 35.3738L46.8907 35.6546C46.9057 35.6542 46.9278 35.6572 46.9607 35.6749L47.0934 35.4273L47.2262 35.1796C47.1186 35.122 47.0002 35.0894 46.8747 35.0929L46.8827 35.3738ZM47.0934 35.4273L46.9607 35.6749L47.0661 35.7314L47.1988 35.4837L47.3315 35.2361L47.2262 35.1796L47.0934 35.4273ZM47.1988 35.4837L47.0661 35.7314L47.1714 35.7878L47.3042 35.5402L47.4369 35.2926L47.3315 35.2361L47.1988 35.4837ZM47.3042 35.5402L47.1714 35.7878C47.2971 35.8552 47.4394 35.8791 47.5848 35.8417L47.5149 35.5696L47.4449 35.2975C47.4443 35.2976 47.4447 35.2975 47.4457 35.2974C47.4467 35.2974 47.4477 35.2974 47.4483 35.2975C47.4499 35.2977 47.4463 35.2977 47.4369 35.2926L47.3042 35.5402ZM47.5149 35.5696L47.5848 35.8417L47.6902 35.8146L47.6202 35.5425L47.5503 35.2704L47.4449 35.2975L47.5149 35.5696ZM47.6202 35.5425L47.6902 35.8146L47.7955 35.7875L47.7256 35.5154L47.6556 35.2433L47.5503 35.2704L47.6202 35.5425ZM47.7256 35.5154L47.7955 35.7875C47.8316 35.7782 47.8654 35.7764 47.899 35.7809L47.9363 35.5025L47.9736 35.224C47.8667 35.2097 47.76 35.2165 47.6556 35.2433L47.7256 35.5154ZM47.9363 35.5025L47.899 35.7809L48.0043 35.795L48.0417 35.5166L48.079 35.2381L47.9736 35.224L47.9363 35.5025ZM48.0417 35.5166L48.0043 35.795L48.1097 35.8092L48.147 35.5307L48.1844 35.2523L48.079 35.2381L48.0417 35.5166ZM48.147 35.5307L48.1097 35.8092C48.1934 35.8204 48.2774 35.8255 48.3614 35.8244L48.3577 35.5434L48.354 35.2625C48.2976 35.2633 48.2411 35.2599 48.1844 35.2523L48.147 35.5307ZM48.3577 35.5434L48.3614 35.8244L48.4668 35.823L48.4631 35.5421L48.4594 35.2611L48.354 35.2625L48.3577 35.5434ZM48.4631 35.5421L48.4668 35.823L48.5722 35.8216L48.5684 35.5407L48.5647 35.2597L48.4594 35.2611L48.4631 35.5421ZM48.5684 35.5407L48.5722 35.8216C48.6478 35.8206 48.7235 35.8174 48.7991 35.812L48.7792 35.5318L48.7592 35.2515C48.6944 35.2561 48.6295 35.2589 48.5647 35.2597L48.5684 35.5407ZM48.7792 35.5318L48.7991 35.812L48.9044 35.8045L48.8845 35.5243L48.8646 35.244L48.7592 35.2515L48.7792 35.5318ZM48.8845 35.5243L48.9044 35.8045L49.0098 35.797L48.9899 35.5168L48.97 35.2366L48.8646 35.244L48.8845 35.5243ZM48.9899 35.5168L49.0098 35.797C49.1122 35.7898 49.2117 35.7652 49.3075 35.7258L49.2006 35.466L49.0937 35.2061C49.049 35.2245 49.008 35.2338 48.97 35.2366L48.9899 35.5168ZM49.2006 35.466L49.3075 35.7258L49.4128 35.6825L49.3059 35.4226L49.1991 35.1628L49.0937 35.2061L49.2006 35.466ZM49.3059 35.4226L49.4128 35.6825L49.5182 35.6391L49.4113 35.3793L49.3044 35.1195L49.1991 35.1628L49.3059 35.4226ZM49.4113 35.3793L49.5182 35.6391C49.5205 35.6382 49.5213 35.6381 49.5207 35.6382C49.52 35.6384 49.5187 35.6386 49.5169 35.6386C49.5151 35.6386 49.5137 35.6384 49.513 35.6382C49.5124 35.6381 49.5132 35.6382 49.5155 35.6391L49.622 35.3792L49.7285 35.1192C49.5899 35.0624 49.443 35.0625 49.3044 35.1195L49.4113 35.3793ZM49.622 35.3792L49.5155 35.6391L49.6208 35.6823L49.7274 35.4223L49.8339 35.1624L49.7285 35.1192L49.622 35.3792ZM49.7274 35.4223L49.6208 35.6823L49.7262 35.7255L49.8327 35.4655L49.9393 35.2055L49.8339 35.1624L49.7274 35.4223ZM49.8327 35.4655L49.7262 35.7255C49.8181 35.7631 49.9128 35.7886 50.0099 35.8003L50.0434 35.5214L50.077 35.2424C50.0336 35.2372 49.9878 35.2254 49.9393 35.2055L49.8327 35.4655ZM50.0434 35.5214L50.0099 35.8003L50.1152 35.813L50.1488 35.534L50.1824 35.2551L50.077 35.2424L50.0434 35.5214ZM50.1488 35.534L50.1152 35.813L50.2206 35.8257L50.2542 35.5467L50.2877 35.2678L50.1824 35.2551L50.1488 35.534ZM50.2542 35.5467L50.2206 35.8257C50.3572 35.8421 50.4864 35.8103 50.601 35.7468L50.4649 35.501L50.3287 35.2553C50.3029 35.2696 50.2916 35.2682 50.2877 35.2678L50.2542 35.5467ZM50.4649 35.501L50.601 35.7468L50.7064 35.6884L50.5702 35.4426L50.4341 35.1969L50.3287 35.2553L50.4649 35.501ZM50.5702 35.4426L50.7064 35.6884L50.8118 35.63L50.6756 35.3843L50.5394 35.1385L50.4341 35.1969L50.5702 35.4426ZM50.6756 35.3843L50.8118 35.63C50.822 35.6243 50.8262 35.6239 50.8252 35.6241C50.8248 35.6242 50.824 35.6242 50.823 35.6242C50.822 35.6242 50.8216 35.624 50.822 35.6241L50.8863 35.3506L50.9506 35.0771C50.8046 35.0428 50.6633 35.0699 50.5394 35.1385L50.6756 35.3843ZM50.8863 35.3506L50.822 35.6241L50.9274 35.6489L50.9917 35.3754L51.0559 35.1019L50.9506 35.0771L50.8863 35.3506ZM50.9917 35.3754L50.9274 35.6489L51.0327 35.6737L51.097 35.4002L51.1613 35.1267L51.0559 35.1019L50.9917 35.3754ZM51.097 35.4002L51.0327 35.6737C51.1119 35.6923 51.1913 35.7069 51.2709 35.7174L51.3077 35.4388L51.3445 35.1603C51.2837 35.1523 51.2226 35.1411 51.1613 35.1267L51.097 35.4002ZM51.3077 35.4388L51.2709 35.7174L51.3763 35.7313L51.4131 35.4528L51.4499 35.1742L51.3445 35.1603L51.3077 35.4388ZM51.4131 35.4528L51.3763 35.7313L51.4816 35.7452L51.5184 35.4667L51.5552 35.1882L51.4499 35.1742L51.4131 35.4528ZM51.5184 35.4667L51.4816 35.7452C51.5595 35.7555 51.6374 35.7626 51.7154 35.7664L51.7292 35.4858L51.7429 35.2051C51.6804 35.2021 51.6179 35.1964 51.5552 35.1882L51.5184 35.4667ZM51.7292 35.4858L51.7154 35.7664L51.8208 35.7715L51.8345 35.4909L51.8482 35.2103L51.7429 35.2051L51.7292 35.4858ZM51.8345 35.4909L51.8208 35.7715L51.9261 35.7767L51.9399 35.4961L51.9536 35.2155L51.8482 35.2103L51.8345 35.4909ZM51.9399 35.4961L51.9261 35.7767C51.9778 35.7792 52.0301 35.7869 52.0833 35.8L52.1506 35.5272L52.2179 35.2545C52.1306 35.2329 52.0424 35.2198 51.9536 35.2155L51.9399 35.4961ZM52.1506 35.5272L52.0833 35.8L52.1886 35.826L52.2559 35.5532L52.3233 35.2805L52.2179 35.2545L52.1506 35.5272ZM52.2559 35.5532L52.1886 35.826L52.294 35.852L52.3613 35.5792L52.4286 35.3065L52.3233 35.2805L52.2559 35.5532ZM52.3613 35.5792L52.294 35.852C52.4305 35.8857 52.5659 35.8689 52.6897 35.8118L52.572 35.5566L52.4543 35.3015C52.4377 35.3092 52.4325 35.3074 52.4286 35.3065L52.3613 35.5792ZM52.572 35.5566L52.6897 35.8118L52.795 35.7632L52.6774 35.508L52.5597 35.2529L52.4543 35.3015L52.572 35.5566ZM52.6774 35.508L52.795 35.7632L52.9004 35.7146L52.7827 35.4594L52.6651 35.2043L52.5597 35.2529L52.6774 35.508ZM52.7827 35.4594L52.9004 35.7146C52.921 35.705 52.9307 35.7061 52.9378 35.7075L52.9934 35.4321L53.0491 35.1567C52.9157 35.1298 52.7849 35.149 52.6651 35.2043L52.7827 35.4594ZM52.9934 35.4321L52.9378 35.7075L53.0432 35.7288L53.0988 35.4534L53.1544 35.178L53.0491 35.1567L52.9934 35.4321ZM53.0988 35.4534L53.0432 35.7288L53.1485 35.7501L53.2042 35.4747L53.2598 35.1993L53.1544 35.178L53.0988 35.4534ZM53.2042 35.4747L53.1485 35.7501C53.2282 35.7662 53.3081 35.7781 53.3883 35.7857L53.4149 35.506L53.4415 35.2263C53.3811 35.2206 53.3206 35.2116 53.2598 35.1993L53.2042 35.4747ZM53.4149 35.506L53.3883 35.7857L53.4936 35.7957L53.5202 35.516L53.5468 35.2363L53.4415 35.2263L53.4149 35.506ZM53.5202 35.516L53.4936 35.7957L53.599 35.8057L53.6256 35.526L53.6522 35.2463L53.5468 35.2363L53.5202 35.516ZM53.6256 35.526L53.599 35.8057C53.6802 35.8134 53.7615 35.8164 53.8429 35.8145L53.8363 35.5336L53.8297 35.2527C53.7706 35.2541 53.7114 35.252 53.6522 35.2463L53.6256 35.526ZM53.8363 35.5336L53.8429 35.8145L53.9482 35.812L53.9417 35.5311L53.9351 35.2502L53.8297 35.2527L53.8363 35.5336ZM53.9417 35.5311L53.9482 35.812L54.0536 35.8095L54.047 35.5286L54.0404 35.2478L53.9351 35.2502L53.9417 35.5311ZM54.047 35.5286L54.0536 35.8095C54.1373 35.8076 54.2208 35.7996 54.304 35.7857L54.2577 35.5086L54.2114 35.2315C54.1541 35.241 54.0972 35.2464 54.0404 35.2478L54.047 35.5286ZM54.2577 35.5086L54.304 35.7857L54.4094 35.7681L54.3631 35.491L54.3168 35.2139L54.2114 35.2315L54.2577 35.5086ZM54.3631 35.491L54.4094 35.7681L54.5148 35.7505L54.4684 35.4733L54.4221 35.1962L54.3168 35.2139L54.3631 35.491ZM54.4684 35.4733L54.5148 35.7505C54.5364 35.7468 54.5589 35.7481 54.5866 35.7578L54.6792 35.4925L54.7717 35.2272C54.6589 35.1879 54.541 35.1764 54.4221 35.1962L54.4684 35.4733ZM54.6792 35.4925L54.5866 35.7578L54.692 35.7945L54.7845 35.5292L54.877 35.264L54.7717 35.2272L54.6792 35.4925ZM54.7845 35.5292L54.692 35.7945L54.7973 35.8313L54.8899 35.566L54.9824 35.3007L54.877 35.264L54.7845 35.5292ZM54.8899 35.566L54.7973 35.8313C54.9347 35.8792 55.0764 35.8733 55.209 35.8179L55.1006 35.5587L54.9922 35.2995C54.9858 35.3022 54.984 35.3018 54.9855 35.3017C54.986 35.3017 54.9863 35.3018 54.9861 35.3018C54.986 35.3017 54.9848 35.3015 54.9824 35.3007L54.8899 35.566ZM55.1006 35.5587L55.209 35.8179L55.3143 35.7738L55.2059 35.5146L55.0976 35.2554L54.9922 35.2995L55.1006 35.5587ZM55.2059 35.5146L55.3143 35.7738L55.4197 35.7298L55.3113 35.4706L55.2029 35.2114L55.0976 35.2554L55.2059 35.5146ZM55.3113 35.4706L55.4197 35.7298C55.4211 35.7292 55.4208 35.7295 55.419 35.7298C55.417 35.7302 55.4144 35.7305 55.4113 35.7305C55.4082 35.7304 55.4058 35.73 55.4044 35.7297C55.403 35.7293 55.4033 35.7293 55.4054 35.7302L55.522 35.4746L55.6386 35.219C55.4983 35.155 55.3465 35.1513 55.2029 35.2114L55.3113 35.4706ZM55.522 35.4746L55.4054 35.7302L55.5108 35.7783L55.6274 35.5226L55.744 35.267L55.6386 35.219L55.522 35.4746ZM55.6274 35.5226L55.5108 35.7783L55.6161 35.8263L55.7327 35.5707L55.8493 35.3151L55.744 35.267L55.6274 35.5226ZM55.7327 35.5707L55.6161 35.8263C55.7791 35.9006 55.9486 35.8809 56.092 35.7916L55.9434 35.5531L55.7949 35.3146C55.7911 35.317 55.7983 35.3117 55.8147 35.3103C55.8321 35.3089 55.8449 35.3131 55.8493 35.3151L55.7327 35.5707ZM55.9434 35.5531L56.092 35.7916L56.1973 35.726L56.0488 35.4875L55.9003 35.249L55.7949 35.3146L55.9434 35.5531ZM56.0488 35.4875L56.1973 35.726L56.3027 35.6604L56.1542 35.4219L56.0056 35.1834L55.9003 35.249L56.0488 35.4875ZM56.1542 35.4219L56.3027 35.6604C56.306 35.6583 56.2979 35.664 56.2804 35.6653C56.262 35.6667 56.2487 35.6621 56.2445 35.6601L56.3649 35.4062L56.4852 35.1523C56.3221 35.075 56.1507 35.093 56.0056 35.1834L56.1542 35.4219ZM56.3649 35.4062L56.2445 35.6601L56.3499 35.71L56.4702 35.4561L56.5906 35.2023L56.4852 35.1523L56.3649 35.4062ZM56.4702 35.4561L56.3499 35.71L56.4552 35.76L56.5756 35.5061L56.6959 35.2522L56.5906 35.2023L56.4702 35.4561ZM56.5756 35.5061L56.4552 35.76C56.5626 35.8108 56.6783 35.8374 56.7991 35.8319L56.7863 35.5512L56.7735 35.2705C56.7538 35.2714 56.7291 35.2679 56.6959 35.2522L56.5756 35.5061ZM56.7863 35.5512L56.7991 35.8319L56.9045 35.827L56.8917 35.5464L56.8788 35.2657L56.7735 35.2705L56.7863 35.5512ZM56.8917 35.5464L56.9045 35.827L57.0099 35.8222L56.997 35.5416L56.9842 35.2609L56.8788 35.2657L56.8917 35.5464ZM56.997 35.5416L57.0099 35.8222C57.0736 35.8193 57.1374 35.8186 57.2012 35.8201L57.2077 35.5392L57.2143 35.2583C57.1376 35.2565 57.0609 35.2574 56.9842 35.2609L56.997 35.5416ZM57.2077 35.5392L57.2012 35.8201L57.3065 35.8225L57.3131 35.5417L57.3197 35.2608L57.2143 35.2583L57.2077 35.5392ZM57.3131 35.5417L57.3065 35.8225L57.4119 35.825L57.4184 35.5441L57.425 35.2633L57.3197 35.2608L57.3131 35.5417ZM57.4184 35.5441L57.4119 35.825C57.5152 35.8274 57.6169 35.8118 57.7156 35.7798L57.6292 35.5125L57.5427 35.2452C57.5009 35.2587 57.4621 35.2641 57.425 35.2633L57.4184 35.5441ZM57.6292 35.5125L57.7156 35.7798L57.821 35.7458L57.7345 35.4784L57.6481 35.2111L57.5427 35.2452L57.6292 35.5125ZM57.7345 35.4784L57.821 35.7458L57.9263 35.7117L57.8399 35.4444L57.7534 35.177L57.6481 35.2111L57.7345 35.4784ZM57.8399 35.4444L57.9263 35.7117C57.9321 35.7098 57.9347 35.7099 57.9357 35.7099C57.9367 35.7099 57.9405 35.7102 57.9482 35.7132L58.0506 35.4515L58.153 35.1899C58.0238 35.1393 57.8868 35.1339 57.7534 35.177L57.8399 35.4444ZM58.0506 35.4515L57.9482 35.7132L58.0536 35.7544L58.1559 35.4927L58.2583 35.2311L58.153 35.1899L58.0506 35.4515ZM58.1559 35.4927L58.0536 35.7544L58.1589 35.7956L58.2613 35.534L58.3637 35.2723L58.2583 35.2311L58.1559 35.4927ZM58.2613 35.534L58.1589 35.7956C58.3143 35.8564 58.4729 35.838 58.6108 35.7596L58.472 35.5153L58.3332 35.2711C58.328 35.274 58.3314 35.271 58.3419 35.2701C58.3468 35.2696 58.3516 35.2698 58.356 35.2705C58.3603 35.2711 58.363 35.2721 58.3637 35.2723L58.2613 35.534ZM58.472 35.5153L58.6108 35.7596L58.7162 35.6997L58.5774 35.4554L58.4385 35.2112L58.3332 35.2711L58.472 35.5153ZM58.5774 35.4554L58.7162 35.6997L58.8216 35.6398L58.6827 35.3956L58.5439 35.1513L58.4385 35.2112L58.5774 35.4554ZM58.6827 35.3956L58.8216 35.6398C58.8285 35.6359 58.8276 35.6378 58.8201 35.6387C58.8166 35.6391 58.813 35.6391 58.8095 35.6387C58.806 35.6383 58.8039 35.6377 58.8033 35.6375L58.8934 35.3714L58.9836 35.1053C58.8301 35.0533 58.6769 35.0757 58.5439 35.1513L58.6827 35.3956ZM58.8934 35.3714L58.8033 35.6375L58.9086 35.6732L58.9988 35.4071L59.089 35.141L58.9836 35.1053L58.8934 35.3714ZM58.9988 35.4071L58.9086 35.6732L59.014 35.7089L59.1042 35.4428L59.1943 35.1767L59.089 35.141L58.9988 35.4071ZM59.1042 35.4428L59.014 35.7089C59.1331 35.7493 59.2574 35.756 59.3807 35.7262L59.3149 35.4531L59.249 35.18C59.2319 35.1841 59.2157 35.1839 59.1943 35.1767L59.1042 35.4428ZM59.3149 35.4531L59.3807 35.7262L59.486 35.7009L59.4202 35.4277L59.3544 35.1546L59.249 35.18L59.3149 35.4531ZM59.4202 35.4277L59.486 35.7009L59.5914 35.6755L59.5256 35.4023L59.4598 35.1292L59.3544 35.1546L59.4202 35.4277ZM59.5256 35.4023L59.5914 35.6755C59.6007 35.6732 59.6102 35.6725 59.6286 35.6802L59.7363 35.4207L59.844 35.1612C59.7219 35.1105 59.591 35.0976 59.4598 35.1292L59.5256 35.4023ZM59.7363 35.4207L59.6286 35.6802L59.734 35.7239L59.8417 35.4644L59.9493 35.2049L59.844 35.1612L59.7363 35.4207ZM59.8417 35.4644L59.734 35.7239L59.8393 35.7676L59.947 35.5081L60.0547 35.2486L59.9493 35.2049L59.8417 35.4644ZM59.947 35.5081L59.8393 35.7676C59.987 35.8289 60.1419 35.821 60.2823 35.7515L60.1577 35.4997L60.0331 35.2479C60.031 35.249 60.0308 35.2488 60.0325 35.2483C60.0343 35.2479 60.0373 35.2473 60.0412 35.2471C60.0451 35.247 60.0486 35.2473 60.0515 35.2478C60.0543 35.2484 60.0554 35.2489 60.0547 35.2486L59.947 35.5081ZM60.1577 35.4997L60.2823 35.7515L60.3877 35.6994L60.2631 35.4476L60.1385 35.1958L60.0331 35.2479L60.1577 35.4997ZM60.2631 35.4476L60.3877 35.6994L60.493 35.6473L60.3684 35.3954L60.2439 35.1436L60.1385 35.1958L60.2631 35.4476ZM60.3684 35.3954L60.493 35.6473C60.4914 35.6481 60.4806 35.6526 60.4641 35.652C60.448 35.6514 60.4395 35.6465 60.4412 35.6475L60.5792 35.4027L60.7171 35.158C60.5687 35.0743 60.4002 35.0663 60.2439 35.1436L60.3684 35.3954ZM60.5792 35.4027L60.4412 35.6475L60.5465 35.7068L60.6845 35.4621L60.8225 35.2174L60.7171 35.158L60.5792 35.4027ZM60.6845 35.4621L60.5465 35.7068L60.6519 35.7662L60.7899 35.5215L60.9278 35.2768L60.8225 35.2174L60.6845 35.4621ZM60.7899 35.5215L60.6519 35.7662C60.7756 35.836 60.9174 35.8642 61.0644 35.83L61.0006 35.5563L60.9368 35.2827C60.9366 35.2828 60.9372 35.2826 60.9384 35.2826C60.9396 35.2825 60.9406 35.2826 60.9411 35.2827C60.9423 35.2829 60.9381 35.2826 60.9278 35.2768L60.7899 35.5215ZM61.0006 35.5563L61.0644 35.83L61.1697 35.8054L61.1059 35.5318L61.0422 35.2582L60.9368 35.2827L61.0006 35.5563ZM61.1059 35.5318L61.1697 35.8054L61.2751 35.7808L61.2113 35.5072L61.1475 35.2336L61.0422 35.2582L61.1059 35.5318ZM61.2113 35.5072L61.2751 35.7808C61.3022 35.7745 61.3276 35.7746 61.3551 35.7814L61.422 35.5085L61.4889 35.2356C61.3759 35.2079 61.2609 35.2072 61.1475 35.2336L61.2113 35.5072ZM61.422 35.5085L61.3551 35.7814L61.4605 35.8072L61.5274 35.5343L61.5943 35.2615L61.4889 35.2356L61.422 35.5085ZM61.5274 35.5343L61.4605 35.8072L61.5658 35.833L61.6327 35.5602L61.6996 35.2873L61.5943 35.2615L61.5274 35.5343ZM61.6327 35.5602L61.5658 35.833C61.6908 35.8637 61.8168 35.8562 61.9369 35.8138L61.8434 35.5488L61.7499 35.2839C61.7296 35.291 61.7151 35.2911 61.6996 35.2873L61.6327 35.5602ZM61.8434 35.5488L61.9369 35.8138L62.0423 35.7766L61.9488 35.5116L61.8553 35.2467L61.7499 35.2839L61.8434 35.5488ZM61.9488 35.5116L62.0423 35.7766L62.1476 35.7394L62.0542 35.4745L61.9607 35.2095L61.8553 35.2467L61.9488 35.5116ZM62.0542 35.4745L62.1476 35.7394C62.189 35.7248 62.2269 35.7188 62.2626 35.7191L62.2649 35.4381L62.2671 35.1572C62.1624 35.1563 62.0598 35.1745 61.9607 35.2095L62.0542 35.4745ZM62.2649 35.4381L62.2626 35.7191L62.3679 35.7199L62.3702 35.439L62.3725 35.158L62.2671 35.1572L62.2649 35.4381ZM62.3702 35.439L62.3679 35.7199L62.4733 35.7208L62.4756 35.4398L62.4779 35.1589L62.3725 35.158L62.3702 35.439ZM62.4756 35.4398L62.4733 35.7208C62.5396 35.7213 62.6059 35.7233 62.6722 35.7266L62.6863 35.446L62.7004 35.1654C62.6262 35.1617 62.5521 35.1595 62.4779 35.1589L62.4756 35.4398ZM62.6863 35.446L62.6722 35.7266L62.7775 35.7319L62.7917 35.4513L62.8058 35.1707L62.7004 35.1654L62.6863 35.446ZM62.7917 35.4513L62.7775 35.7319L62.8829 35.7372L62.897 35.4566L62.9111 35.176L62.8058 35.1707L62.7917 35.4513ZM62.897 35.4566L62.8829 35.7372C62.9549 35.7408 63.027 35.7438 63.099 35.746L63.1077 35.4652L63.1164 35.1843C63.048 35.1822 62.9796 35.1794 62.9111 35.176L62.897 35.4566ZM63.1077 35.4652L63.099 35.746L63.2044 35.7492L63.2131 35.4684L63.2218 35.1876L63.1164 35.1843L63.1077 35.4652ZM63.2131 35.4684L63.2044 35.7492L63.3098 35.7525L63.3184 35.4717L63.3271 35.1909L63.2218 35.1876L63.2131 35.4684ZM63.3184 35.4717L63.3098 35.7525C63.3455 35.7536 63.3751 35.7543 63.3968 35.7543C63.4068 35.7543 63.4199 35.7543 63.4326 35.7536C63.4373 35.7533 63.4517 35.7525 63.469 35.7496C63.4751 35.7486 63.4989 35.7446 63.5272 35.7333C63.5402 35.7282 63.5725 35.7145 63.6062 35.6857C63.6405 35.6564 63.7048 35.5852 63.7048 35.4719H63.4238H63.1428C63.1428 35.3588 63.207 35.2877 63.2412 35.2585C63.2747 35.2298 63.3069 35.2162 63.3196 35.2112C63.3473 35.2002 63.3703 35.1964 63.3753 35.1956C63.3904 35.193 63.4016 35.1925 63.4018 35.1925C63.4058 35.1923 63.4057 35.1924 63.3981 35.1924C63.3847 35.1924 63.3616 35.1919 63.3271 35.1909L63.3184 35.4717ZM63.4238 35.4719H63.7048V35.4689H63.4238H63.1428V35.4719H63.4238ZM63.4238 35.4689L63.4407 35.1885L63.3407 35.1824L63.3238 35.4629L63.3069 35.7433L63.4069 35.7494L63.4238 35.4689ZM63.3238 35.4629V35.7438H63.4238V35.4629V35.1819H63.3238V35.4629Z" fill="black"/>
<path d="M40.1047 37.9915C39.9496 37.9915 39.8238 38.1173 39.8238 38.2725C39.8238 38.4276 39.9496 38.5534 40.1047 38.5534V38.2725V37.9915ZM40.2047 38.2725V38.5534H40.2391L40.2724 38.5451L40.2047 38.2725ZM40.3655 38.2326L40.2978 37.9599L40.3655 38.2326ZM40.8422 38.2965L40.7546 38.5634L40.8422 38.2965ZM41.4744 38.2873L41.4098 38.5607L41.4744 38.2873ZM42.1065 38.193L41.9741 37.9452L42.1065 38.193ZM42.3172 38.2125L42.1533 38.4406L42.3172 38.2125ZM42.4226 38.2882L42.5866 38.06L42.4226 38.2882ZM42.528 38.3639L42.6919 38.1358L42.528 38.3639ZM43.1601 38.1537L43.2454 37.886L43.1601 38.1537ZM43.3708 38.2209L43.2855 38.4886L43.3708 38.2209ZM44.003 38.3197L43.8643 38.0754L44.003 38.3197ZM44.2137 38.2002L44.3523 38.4446L44.2137 38.2002ZM45.6887 38.2154L45.775 37.948L45.6887 38.2154ZM45.8994 38.2834L45.8131 38.5508L45.8994 38.2834ZM46.5315 38.2518L46.5972 37.9786L46.5315 38.2518ZM46.7422 38.3024L46.6766 38.5756L46.7422 38.3024ZM47.7958 38.1666L47.8602 37.8931V37.8931L47.7958 38.1666ZM48.0065 38.2161L47.9422 38.4896L48.0065 38.2161ZM48.2172 38.2803L48.3155 38.0171L48.2172 38.2803ZM48.428 38.359L48.3297 38.6222L48.428 38.359ZM48.6387 38.4052L48.6204 38.6855L48.6387 38.4052ZM49.0601 38.3955L48.9824 38.1254L49.0601 38.3955ZM49.2708 38.3348L49.1931 38.0648L49.2708 38.3348ZM49.903 38.2006L49.8346 38.4731L49.903 38.2006ZM50.7458 38.3561L50.89 38.5973L50.7458 38.3561ZM50.9565 38.2301L50.8123 37.989L50.9565 38.2301ZM51.5887 38.2874L51.7053 38.0318L51.5887 38.2874ZM51.694 38.3355L51.5774 38.5911L51.694 38.3355ZM51.7994 38.3836L51.6827 38.6392L51.7994 38.3836ZM53.4851 38.3512L53.4787 38.6321V38.6321L53.4851 38.3512ZM54.9601 38.2396L54.8896 37.9676L54.9601 38.2396ZM55.3815 38.2212L55.5266 37.9806L55.3815 38.2212ZM55.5922 38.3482L55.4472 38.5888L55.5922 38.3482ZM57.0672 38.2192L57.1427 37.9485L57.0672 38.2192ZM57.278 38.2779L57.2025 38.5486L57.278 38.2779ZM58.0154 38.3544L57.9207 38.6189L58.0154 38.3544ZM58.3315 38.4325L58.3385 38.1516L58.3315 38.4325ZM58.4369 38.4351L58.4299 38.716L58.4369 38.4351ZM58.5422 38.4377L58.5353 38.7186L58.5422 38.4377ZM59.2797 38.3397L59.357 38.0696L59.2797 38.3397ZM59.3851 38.3698L59.3079 38.64L59.3851 38.3698ZM59.949 38.223L59.8348 38.4797V38.4797L59.949 38.223ZM59.9861 38.2395L60.2074 38.4126L60.4292 38.129L60.1002 37.9828L59.9861 38.2395ZM59.9603 38.2725L59.739 38.0994L59.3838 38.5534H59.9603V38.2725ZM60.0603 38.5534C60.2154 38.5534 60.3412 38.4276 60.3412 38.2725C60.3412 38.1173 60.2154 37.9915 60.0603 37.9915V38.2725V38.5534ZM40.1047 38.2725V38.5534H40.2047V38.2725V37.9915H40.1047V38.2725ZM40.2047 38.2725L40.2724 38.5451L40.4331 38.5053L40.3655 38.2326L40.2978 37.9599L40.1371 37.9998L40.2047 38.2725ZM40.3655 38.2326L40.4331 38.5053C40.4711 38.4958 40.4989 38.4926 40.5179 38.4922C40.5368 38.4918 40.5442 38.4943 40.5439 38.4942L40.6315 38.2273L40.7192 37.9604C40.5797 37.9146 40.4326 37.9264 40.2978 37.9599L40.3655 38.2326ZM40.6315 38.2273L40.5439 38.4942L40.6492 38.5288L40.7369 38.2619L40.8245 37.9949L40.7192 37.9604L40.6315 38.2273ZM40.7369 38.2619L40.6492 38.5288L40.7546 38.5634L40.8422 38.2965L40.9299 38.0295L40.8245 37.9949L40.7369 38.2619ZM40.8422 38.2965L40.7546 38.5634C40.8659 38.5999 40.9817 38.6102 41.0981 38.5912L41.053 38.3139L41.0078 38.0366C40.9837 38.0405 40.959 38.0391 40.9299 38.0295L40.8422 38.2965ZM41.053 38.3139L41.0981 38.5912L41.2035 38.574L41.1583 38.2967L41.1131 38.0194L41.0078 38.0366L41.053 38.3139ZM41.1583 38.2967L41.2035 38.574L41.3089 38.5568L41.2637 38.2795L41.2185 38.0022L41.1131 38.0194L41.1583 38.2967ZM41.2637 38.2795L41.3089 38.5568C41.3421 38.5514 41.375 38.5525 41.4098 38.5607L41.4744 38.2873L41.539 38.0138C41.4333 37.9889 41.3257 37.9848 41.2185 38.0022L41.2637 38.2795ZM41.4744 38.2873L41.4098 38.5607L41.5152 38.5856L41.5797 38.3121L41.6443 38.0387L41.539 38.0138L41.4744 38.2873ZM41.5797 38.3121L41.5152 38.5856L41.6205 38.6105L41.6851 38.337L41.7497 38.0636L41.6443 38.0387L41.5797 38.3121ZM41.6851 38.337L41.6205 38.6105C41.7644 38.6444 41.9044 38.6196 42.0282 38.5534L41.8958 38.3056L41.7634 38.0578C41.7582 38.0606 41.7545 38.0621 41.7523 38.0628C41.7501 38.0636 41.749 38.0637 41.749 38.0637C41.749 38.0637 41.7491 38.0637 41.7493 38.0637C41.7495 38.0637 41.7498 38.0637 41.75 38.0637C41.7505 38.0637 41.7505 38.0638 41.7497 38.0636L41.6851 38.337ZM41.8958 38.3056L42.0282 38.5534L42.1336 38.4971L42.0012 38.2493L41.8688 38.0015L41.7634 38.0578L41.8958 38.3056ZM42.0012 38.2493L42.1336 38.4971L42.2389 38.4408L42.1065 38.193L41.9741 37.9452L41.8688 38.0015L42.0012 38.2493ZM42.1065 38.193L42.2389 38.4408C42.232 38.4445 42.2126 38.4519 42.1861 38.4495C42.1612 38.4472 42.1496 38.438 42.1533 38.4406L42.3172 38.2125L42.4812 37.9843C42.4146 37.9364 42.3328 37.8987 42.2377 37.89C42.141 37.8811 42.0512 37.904 41.9741 37.9452L42.1065 38.193ZM42.3172 38.2125L42.1533 38.4406L42.2586 38.5163L42.4226 38.2882L42.5866 38.06L42.4812 37.9843L42.3172 38.2125ZM42.4226 38.2882L42.2586 38.5163L42.364 38.592L42.528 38.3639L42.6919 38.1358L42.5866 38.06L42.4226 38.2882ZM42.528 38.3639L42.364 38.592C42.4368 38.6444 42.5301 38.6838 42.6388 38.6816C42.747 38.6795 42.8381 38.6369 42.9084 38.5836L42.7387 38.3597L42.5689 38.1359C42.5687 38.136 42.5737 38.1322 42.5841 38.1281C42.5951 38.1239 42.61 38.1202 42.6278 38.1198C42.6663 38.1191 42.6894 38.1339 42.6919 38.1358L42.528 38.3639ZM42.7387 38.3597L42.9084 38.5836L43.0138 38.5038L42.844 38.2799L42.6743 38.056L42.5689 38.1359L42.7387 38.3597ZM42.844 38.2799L43.0138 38.5038L43.1191 38.4239L42.9494 38.2L42.7796 37.9761L42.6743 38.056L42.844 38.2799ZM42.9494 38.2L43.1191 38.4239C43.129 38.4164 43.1275 38.4201 43.115 38.4229C43.1088 38.4243 43.1014 38.425 43.0935 38.4246C43.0857 38.4242 43.0792 38.4228 43.0748 38.4214L43.1601 38.1537L43.2454 37.886C43.0704 37.8302 42.9065 37.8799 42.7796 37.9761L42.9494 38.2ZM43.1601 38.1537L43.0748 38.4214L43.1801 38.455L43.2655 38.1873L43.3508 37.9196L43.2454 37.886L43.1601 38.1537ZM43.2655 38.1873L43.1801 38.455L43.2855 38.4886L43.3708 38.2209L43.4561 37.9532L43.3508 37.9196L43.2655 38.1873ZM43.3708 38.2209L43.2855 38.4886C43.3575 38.5115 43.4296 38.5337 43.5016 38.5551L43.5815 38.2857L43.6614 38.0164C43.593 37.9961 43.5246 37.975 43.4561 37.9532L43.3708 38.2209ZM43.5815 38.2857L43.5016 38.5551L43.607 38.5863L43.6869 38.317L43.7668 38.0476L43.6614 38.0164L43.5815 38.2857ZM43.6869 38.317L43.607 38.5863L43.7123 38.6176L43.7922 38.3482L43.8721 38.0789L43.7668 38.0476L43.6869 38.317ZM43.7922 38.3482L43.7123 38.6176C43.8636 38.6625 44.0124 38.6374 44.1416 38.5641L44.003 38.3197L43.8643 38.0754C43.8561 38.08 43.8549 38.079 43.8599 38.0783C43.8622 38.078 43.8649 38.0779 43.8675 38.0781C43.8701 38.0783 43.8718 38.0788 43.8721 38.0789L43.7922 38.3482ZM44.003 38.3197L44.1416 38.5641L44.2469 38.5044L44.1083 38.26L43.9697 38.0156L43.8643 38.0754L44.003 38.3197ZM44.1083 38.26L44.2469 38.5044L44.3523 38.4446L44.2137 38.2002L44.0751 37.9558L43.9697 38.0156L44.1083 38.26ZM44.2137 38.2002L44.3523 38.4446C44.3887 38.4239 44.4147 38.4186 44.4329 38.4181L44.4244 38.1373L44.4159 37.8564C44.2935 37.8601 44.1791 37.8968 44.0751 37.9558L44.2137 38.2002ZM44.4244 38.1373L44.4329 38.4181L44.5382 38.4149L44.5297 38.1341L44.5212 37.8532L44.4159 37.8564L44.4244 38.1373ZM44.5297 38.1341L44.5382 38.4149L44.6436 38.4117L44.6351 38.1309L44.6266 37.8501L44.5212 37.8532L44.5297 38.1341ZM44.6351 38.1309L44.6436 38.4117C44.701 38.41 44.7585 38.4121 44.8161 38.4183L44.8458 38.1389L44.8755 37.8595C44.7927 37.8507 44.7097 37.8475 44.6266 37.8501L44.6351 38.1309ZM44.8458 38.1389L44.8161 38.4183L44.9214 38.4295L44.9512 38.1501L44.9809 37.8707L44.8755 37.8595L44.8458 38.1389ZM44.9512 38.1501L44.9214 38.4295L45.0268 38.4407L45.0565 38.1613L45.0863 37.882L44.9809 37.8707L44.9512 38.1501ZM45.0565 38.1613L45.0268 38.4407C45.1049 38.449 45.1831 38.454 45.2613 38.4556L45.2672 38.1748L45.2731 37.8939C45.2109 37.8926 45.1486 37.8886 45.0863 37.882L45.0565 38.1613ZM45.2672 38.1748L45.2613 38.4556L45.3667 38.4579L45.3726 38.177L45.3785 37.8961L45.2731 37.8939L45.2672 38.1748ZM45.3726 38.177L45.3667 38.4579L45.4721 38.4601L45.478 38.1792L45.4838 37.8983L45.3785 37.8961L45.3726 38.177ZM45.478 38.1792L45.4721 38.4601C45.5136 38.4609 45.5568 38.4681 45.6023 38.4828L45.6887 38.2154L45.775 37.948C45.6801 37.9174 45.5828 37.9004 45.4838 37.8983L45.478 38.1792ZM45.6887 38.2154L45.6023 38.4828L45.7077 38.5168L45.794 38.2494L45.8803 37.9821L45.775 37.948L45.6887 38.2154ZM45.794 38.2494L45.7077 38.5168L45.8131 38.5508L45.8994 38.2834L45.9857 38.0161L45.8803 37.9821L45.794 38.2494ZM45.8994 38.2834L45.8131 38.5508C45.929 38.5882 46.0495 38.5952 46.1694 38.5693L46.1101 38.2947L46.0508 38.0201C46.0302 38.0245 46.0102 38.024 45.9857 38.0161L45.8994 38.2834ZM46.1101 38.2947L46.1694 38.5693L46.2748 38.5466L46.2155 38.2719L46.1561 37.9973L46.0508 38.0201L46.1101 38.2947ZM46.2155 38.2719L46.2748 38.5466L46.3801 38.5238L46.3208 38.2492L46.2615 37.9746L46.1561 37.9973L46.2155 38.2719ZM46.3208 38.2492L46.3801 38.5238C46.4089 38.5176 46.4364 38.5179 46.4658 38.5249L46.5315 38.2518L46.5972 37.9786C46.4862 37.9519 46.3732 37.9504 46.2615 37.9746L46.3208 38.2492ZM46.5315 38.2518L46.4658 38.5249L46.5712 38.5503L46.6369 38.2771L46.7026 38.0039L46.5972 37.9786L46.5315 38.2518ZM46.6369 38.2771L46.5712 38.5503L46.6766 38.5756L46.7422 38.3024L46.8079 38.0293L46.7026 38.0039L46.6369 38.2771ZM46.7422 38.3024L46.6766 38.5756C46.8169 38.6094 46.9547 38.5883 47.0786 38.5264L46.953 38.2751L46.8273 38.0238C46.8173 38.0288 46.8122 38.0295 46.8114 38.0297C46.8109 38.0297 46.8106 38.0297 46.8104 38.0297C46.8102 38.0297 46.8095 38.0296 46.8079 38.0293L46.7422 38.3024ZM46.953 38.2751L47.0786 38.5264L47.1839 38.4737L47.0583 38.2224L46.9327 37.9711L46.8273 38.0238L46.953 38.2751ZM47.0583 38.2224L47.1839 38.4737L47.2893 38.4211L47.1637 38.1698L47.038 37.9185L46.9327 37.9711L47.0583 38.2224ZM47.1637 38.1698L47.2893 38.4211C47.3208 38.4053 47.3423 38.4028 47.358 38.4037L47.3744 38.1233L47.3908 37.8428C47.266 37.8355 47.147 37.864 47.038 37.9185L47.1637 38.1698ZM47.3744 38.1233L47.358 38.4037L47.4633 38.4099L47.4797 38.1294L47.4962 37.849L47.3908 37.8428L47.3744 38.1233ZM47.4797 38.1294L47.4633 38.4099L47.5687 38.4161L47.5851 38.1356L47.6015 37.8551L47.4962 37.849L47.4797 38.1294ZM47.5851 38.1356L47.5687 38.4161C47.6224 38.4192 47.6766 38.4271 47.7315 38.44L47.7958 38.1666L47.8602 37.8931C47.7746 37.8729 47.6883 37.8602 47.6015 37.8551L47.5851 38.1356ZM47.7958 38.1666L47.7315 38.44L47.8368 38.4648L47.9012 38.1914L47.9655 37.9179L47.8602 37.8931L47.7958 38.1666ZM47.9012 38.1914L47.8368 38.4648L47.9422 38.4896L48.0065 38.2161L48.0709 37.9427L47.9655 37.9179L47.9012 38.1914ZM48.0065 38.2161L47.9422 38.4896C48.0005 38.5033 48.0594 38.5212 48.119 38.5435L48.2172 38.2803L48.3155 38.0171C48.2346 37.9869 48.1531 37.962 48.0709 37.9427L48.0065 38.2161ZM48.2172 38.2803L48.119 38.5435L48.2243 38.5828L48.3226 38.3196L48.4209 38.0564L48.3155 38.0171L48.2172 38.2803ZM48.3226 38.3196L48.2243 38.5828L48.3297 38.6222L48.428 38.359L48.5262 38.0958L48.4209 38.0564L48.3226 38.3196ZM48.428 38.359L48.3297 38.6222C48.4239 38.6574 48.5211 38.679 48.6204 38.6855L48.6387 38.4052L48.6569 38.1248C48.6158 38.1221 48.5725 38.113 48.5262 38.0958L48.428 38.359ZM48.6387 38.4052L48.6204 38.6855L48.7258 38.6924L48.744 38.412L48.7623 38.1317L48.6569 38.1248L48.6387 38.4052ZM48.744 38.412L48.7258 38.6924L48.8311 38.6993L48.8494 38.4189L48.8676 38.1385L48.7623 38.1317L48.744 38.412ZM48.8494 38.4189L48.8311 38.6993C48.9349 38.706 49.0376 38.6943 49.1378 38.6655L49.0601 38.3955L48.9824 38.1254C48.9421 38.137 48.9043 38.1409 48.8676 38.1385L48.8494 38.4189ZM49.0601 38.3955L49.1378 38.6655L49.2431 38.6352L49.1655 38.3651L49.0878 38.0951L48.9824 38.1254L49.0601 38.3955ZM49.1655 38.3651L49.2431 38.6352L49.3485 38.6048L49.2708 38.3348L49.1931 38.0648L49.0878 38.0951L49.1655 38.3651ZM49.2708 38.3348L49.3485 38.6048C49.4205 38.5841 49.4925 38.5626 49.5645 38.5404L49.4815 38.272L49.3985 38.0035C49.33 38.0247 49.2616 38.0452 49.1931 38.0648L49.2708 38.3348ZM49.4815 38.272L49.5645 38.5404L49.6699 38.5078L49.5869 38.2394L49.5039 37.971L49.3985 38.0035L49.4815 38.272ZM49.5869 38.2394L49.6699 38.5078L49.7752 38.4752L49.6922 38.2068L49.6092 37.9384L49.5039 37.971L49.5869 38.2394ZM49.6922 38.2068L49.7752 38.4752C49.7971 38.4684 49.815 38.4682 49.8346 38.4731L49.903 38.2006L49.9713 37.9281C49.8504 37.8978 49.7278 37.9017 49.6092 37.9384L49.6922 38.2068ZM49.903 38.2006L49.8346 38.4731L49.9399 38.4996L50.0083 38.2271L50.0767 37.9546L49.9713 37.9281L49.903 38.2006ZM50.0083 38.2271L49.9399 38.4996L50.0453 38.526L50.1137 38.2535L50.1821 37.981L50.0767 37.9546L50.0083 38.2271ZM50.1137 38.2535L50.0453 38.526C50.1087 38.542 50.1724 38.5605 50.2363 38.5816L50.3244 38.3148L50.4125 38.048C50.3359 38.0227 50.2591 38.0004 50.1821 37.981L50.1137 38.2535ZM50.3244 38.3148L50.2363 38.5816L50.3416 38.6163L50.4297 38.3496L50.5178 38.0828L50.4125 38.048L50.3244 38.3148ZM50.4297 38.3496L50.3416 38.6163L50.447 38.6511L50.5351 38.3844L50.6232 38.1176L50.5178 38.0828L50.4297 38.3496ZM50.5351 38.3844L50.447 38.6511C50.6035 38.7028 50.7581 38.6761 50.89 38.5973L50.7458 38.3561L50.6016 38.115C50.5942 38.1194 50.5951 38.1173 50.6032 38.1162C50.607 38.1157 50.6111 38.1156 50.6152 38.116C50.6192 38.1164 50.622 38.1172 50.6232 38.1176L50.5351 38.3844ZM50.7458 38.3561L50.89 38.5973L50.9954 38.5342L50.8512 38.2931L50.707 38.052L50.6016 38.115L50.7458 38.3561ZM50.8512 38.2931L50.9954 38.5342L51.1007 38.4712L50.9565 38.2301L50.8123 37.989L50.707 38.052L50.8512 38.2931ZM50.9565 38.2301L51.1007 38.4712C51.113 38.4639 51.1194 38.4624 51.1205 38.4621C51.1211 38.462 51.121 38.4621 51.1205 38.4621C51.1199 38.4621 51.1196 38.462 51.1198 38.4621L51.1672 38.1852L51.2147 37.9082C51.0686 37.8832 50.9311 37.918 50.8123 37.989L50.9565 38.2301ZM51.1672 38.1852L51.1198 38.4621L51.2251 38.4801L51.2726 38.2032L51.32 37.9263L51.2147 37.9082L51.1672 38.1852ZM51.2726 38.2032L51.2251 38.4801L51.3305 38.4982L51.3779 38.2213L51.4254 37.9444L51.32 37.9263L51.2726 38.2032ZM51.3779 38.2213L51.3305 38.4982C51.3749 38.5058 51.422 38.5202 51.472 38.543L51.5887 38.2874L51.7053 38.0318C51.6149 37.9905 51.5214 37.9608 51.4254 37.9444L51.3779 38.2213ZM51.5887 38.2874L51.472 38.543L51.5774 38.5911L51.694 38.3355L51.8107 38.0799L51.7053 38.0318L51.5887 38.2874ZM51.694 38.3355L51.5774 38.5911L51.6827 38.6392L51.7994 38.3836L51.916 38.128L51.8107 38.0799L51.694 38.3355ZM51.7994 38.3836L51.6827 38.6392C51.8421 38.7119 52.0091 38.6963 52.1531 38.6111L52.0101 38.3693L51.867 38.1275C51.8637 38.1295 51.8706 38.1248 51.8858 38.1237C51.9016 38.1227 51.9129 38.1266 51.916 38.128L51.7994 38.3836ZM52.0101 38.3693L52.1531 38.6111L52.2585 38.5488L52.1154 38.307L51.9724 38.0652L51.867 38.1275L52.0101 38.3693ZM52.1154 38.307L52.2585 38.5488L52.3638 38.4865L52.2208 38.2447L52.0778 38.0029L51.9724 38.0652L52.1154 38.307ZM52.2208 38.2447L52.3638 38.4865C52.4089 38.4599 52.447 38.4467 52.479 38.4412L52.4315 38.1643L52.384 37.8874C52.2755 37.906 52.1732 37.9464 52.0778 38.0029L52.2208 38.2447ZM52.4315 38.1643L52.479 38.4412L52.5844 38.4231L52.5369 38.1462L52.4894 37.8693L52.384 37.8874L52.4315 38.1643ZM52.5369 38.1462L52.5844 38.4231L52.6897 38.405L52.6422 38.1281L52.5947 37.8512L52.4894 37.8693L52.5369 38.1462ZM52.6422 38.1281L52.6897 38.405C52.6915 38.4047 52.6926 38.4047 52.6947 38.4051C52.6972 38.4056 52.7044 38.4074 52.7166 38.4142L52.853 38.1685L52.9893 37.9229C52.8706 37.857 52.736 37.827 52.5947 37.8512L52.6422 38.1281ZM52.853 38.1685L52.7166 38.4142L52.822 38.4727L52.9583 38.227L53.0947 37.9814L52.9893 37.9229L52.853 38.1685ZM52.9583 38.227L52.822 38.4727L52.9273 38.5311L53.0637 38.2855L53.2 38.0398L53.0947 37.9814L52.9583 38.227ZM53.0637 38.2855L52.9273 38.5311C53.0316 38.589 53.146 38.6245 53.268 38.6273L53.2744 38.3464L53.2808 38.0655C53.2622 38.0651 53.2362 38.0599 53.2 38.0398L53.0637 38.2855ZM53.2744 38.3464L53.268 38.6273L53.3733 38.6297L53.3797 38.3488L53.3861 38.0679L53.2808 38.0655L53.2744 38.3464ZM53.3797 38.3488L53.3733 38.6297L53.4787 38.6321L53.4851 38.3512L53.4915 38.0703L53.3861 38.0679L53.3797 38.3488ZM53.4851 38.3512L53.4787 38.6321C53.5585 38.6339 53.6384 38.6316 53.7181 38.6252L53.6958 38.3452L53.6735 38.0651C53.6128 38.07 53.5521 38.0717 53.4915 38.0703L53.4851 38.3512ZM53.6958 38.3452L53.7181 38.6252L53.8235 38.6168L53.8012 38.3368L53.7788 38.0567L53.6735 38.0651L53.6958 38.3452ZM53.8012 38.3368L53.8235 38.6168L53.9289 38.6084L53.9065 38.3284L53.8842 38.0483L53.7788 38.0567L53.8012 38.3368ZM53.9065 38.3284L53.9289 38.6084C53.9915 38.6034 54.0541 38.601 54.1166 38.6012L54.1172 38.3202L54.1179 38.0393C54.0399 38.0391 53.962 38.0421 53.8842 38.0483L53.9065 38.3284ZM54.1172 38.3202L54.1166 38.6012L54.222 38.6014L54.2226 38.3204L54.2232 38.0395L54.1179 38.0393L54.1172 38.3202ZM54.2226 38.3204L54.222 38.6014L54.3273 38.6016L54.328 38.3207L54.3286 38.0397L54.2232 38.0395L54.2226 38.3204ZM54.328 38.3207L54.3273 38.6016C54.4098 38.6018 54.4922 38.5966 54.5744 38.5861L54.5387 38.3074L54.5029 38.0287C54.4447 38.0362 54.3866 38.0398 54.3286 38.0397L54.328 38.3207ZM54.5387 38.3074L54.5744 38.5861L54.6797 38.5726L54.644 38.2939L54.6083 38.0152L54.5029 38.0287L54.5387 38.3074ZM54.644 38.2939L54.6797 38.5726L54.7851 38.5591L54.7494 38.2804L54.7137 38.0017L54.6083 38.0152L54.644 38.2939ZM54.7494 38.2804L54.7851 38.5591C54.8673 38.5485 54.9492 38.5326 55.0306 38.5116L54.9601 38.2396L54.8896 37.9676C54.8305 37.9829 54.7719 37.9943 54.7137 38.0017L54.7494 38.2804ZM54.9601 38.2396L55.0306 38.5116L55.1359 38.4843L55.0655 38.2123L54.995 37.9403L54.8896 37.9676L54.9601 38.2396ZM55.0655 38.2123L55.1359 38.4843L55.2413 38.457L55.1708 38.185L55.1003 37.913L54.995 37.9403L55.0655 38.2123ZM55.1708 38.185L55.2413 38.457C55.2404 38.4572 55.2385 38.4576 55.2357 38.4577C55.233 38.4578 55.2305 38.4576 55.2286 38.4573C55.2244 38.4566 55.2268 38.456 55.2365 38.4618L55.3815 38.2212L55.5266 37.9806C55.4009 37.9048 55.2535 37.8733 55.1003 37.913L55.1708 38.185ZM55.3815 38.2212L55.2365 38.4618L55.3418 38.5253L55.4869 38.2847L55.6319 38.0441L55.5266 37.9806L55.3815 38.2212ZM55.4869 38.2847L55.3418 38.5253L55.4472 38.5888L55.5922 38.3482L55.7373 38.1076L55.6319 38.0441L55.4869 38.2847ZM55.5922 38.3482L55.4472 38.5888C55.6001 38.681 55.7765 38.6886 55.9371 38.6013L55.8029 38.3545L55.6688 38.1076C55.6712 38.1063 55.6849 38.1001 55.7059 38.1007C55.7266 38.1013 55.738 38.1081 55.7373 38.1076L55.5922 38.3482ZM55.8029 38.3545L55.9371 38.6013L56.0425 38.5441L55.9083 38.2972L55.7741 38.0504L55.6688 38.1076L55.8029 38.3545ZM55.9083 38.2972L56.0425 38.5441L56.1478 38.4868L56.0137 38.24L55.8795 37.9931L55.7741 38.0504L55.9083 38.2972ZM56.0137 38.24L56.1478 38.4868C56.1781 38.4704 56.1962 38.469 56.2068 38.4697L56.2244 38.1893L56.2419 37.9089C56.1121 37.9008 55.9897 37.9332 55.8795 37.9931L56.0137 38.24ZM56.2244 38.1893L56.2068 38.4697L56.3122 38.4763L56.3297 38.1959L56.3473 37.9155L56.2419 37.9089L56.2244 38.1893ZM56.3297 38.1959L56.3122 38.4763L56.4176 38.4829L56.4351 38.2025L56.4526 37.9221L56.3473 37.9155L56.3297 38.1959ZM56.4351 38.2025L56.4176 38.4829C56.4979 38.4879 56.5783 38.4886 56.6587 38.4849L56.6458 38.2042L56.633 37.9236C56.5729 37.9263 56.5128 37.9258 56.4526 37.9221L56.4351 38.2025ZM56.6458 38.2042L56.6587 38.4849L56.764 38.4801L56.7512 38.1994L56.7383 37.9188L56.633 37.9236L56.6458 38.2042ZM56.7512 38.1994L56.764 38.4801L56.8694 38.4753L56.8565 38.1946L56.8437 37.9139L56.7383 37.9188L56.7512 38.1994ZM56.8565 38.1946L56.8694 38.4753C56.9087 38.4735 56.9492 38.4779 56.9918 38.4898L57.0672 38.2192L57.1427 37.9485C57.0448 37.9212 56.9448 37.9093 56.8437 37.9139L56.8565 38.1946ZM57.0672 38.2192L56.9918 38.4898L57.0971 38.5192L57.1726 38.2485L57.2481 37.9779L57.1427 37.9485L57.0672 38.2192ZM57.1726 38.2485L57.0971 38.5192L57.2025 38.5486L57.278 38.2779L57.3534 38.0073L57.2481 37.9779L57.1726 38.2485ZM57.278 38.2779L57.2025 38.5486C57.3023 38.5764 57.4044 38.5875 57.5076 38.5805L57.4887 38.3002L57.4698 38.0199C57.4324 38.0224 57.3941 38.0187 57.3534 38.0073L57.278 38.2779ZM57.4887 38.3002L57.5076 38.5805L57.6129 38.5734L57.594 38.2931L57.5751 38.0128L57.4698 38.0199L57.4887 38.3002ZM57.594 38.2931L57.6129 38.5734L57.7183 38.5663L57.6994 38.286L57.6805 38.0057L57.5751 38.0128L57.594 38.2931ZM57.6994 38.286L57.7183 38.5663C57.7477 38.5643 57.7793 38.5682 57.8153 38.5811L57.9101 38.3166L58.0049 38.0521C57.9004 38.0147 57.7916 37.9982 57.6805 38.0057L57.6994 38.286ZM57.9101 38.3166L57.8153 38.5811L57.9207 38.6189L58.0154 38.3544L58.1102 38.0899L58.0049 38.0521L57.9101 38.3166ZM58.0154 38.3544L57.9207 38.6189L58.026 38.6566L58.1208 38.3921L58.2156 38.1276L58.1102 38.0899L58.0154 38.3544ZM58.1208 38.3921L58.026 38.6566C58.1227 38.6913 58.2226 38.7108 58.3246 38.7134L58.3315 38.4325L58.3385 38.1516C58.3 38.1507 58.2594 38.1433 58.2156 38.1276L58.1208 38.3921ZM58.3315 38.4325L58.3246 38.7134L58.4299 38.716L58.4369 38.4351L58.4438 38.1542L58.3385 38.1516L58.3315 38.4325ZM58.4369 38.4351L58.4299 38.716L58.5353 38.7186L58.5422 38.4377L58.5492 38.1569L58.4438 38.1542L58.4369 38.4351ZM58.5422 38.4377L58.5353 38.7186C58.6446 38.7213 58.7511 38.7015 58.8531 38.6626L58.7529 38.4001L58.6528 38.1376C58.6143 38.1523 58.5804 38.1576 58.5492 38.1569L58.5422 38.4377ZM58.7529 38.4001L58.8531 38.6626L58.9585 38.6224L58.8583 38.3599L58.7581 38.0974L58.6528 38.1376L58.7529 38.4001ZM58.8583 38.3599L58.9585 38.6224L59.0639 38.5822L58.9637 38.3197L58.8635 38.0572L58.7581 38.0974L58.8583 38.3599ZM58.9637 38.3197L59.0639 38.5822C59.0791 38.5763 59.0871 38.5769 59.0971 38.5797L59.1744 38.3096L59.2516 38.0395C59.1212 38.0022 58.9887 38.0094 58.8635 38.0572L58.9637 38.3197ZM59.1744 38.3096L59.0971 38.5797L59.2025 38.6098L59.2797 38.3397L59.357 38.0696L59.2516 38.0395L59.1744 38.3096ZM59.2797 38.3397L59.2025 38.6098L59.3079 38.64L59.3851 38.3698L59.4623 38.0997L59.357 38.0696L59.2797 38.3397ZM59.3851 38.3698L59.3079 38.64C59.4466 38.6796 59.5857 38.6654 59.713 38.6069L59.5958 38.3516L59.4786 38.0963C59.4741 38.0983 59.471 38.0993 59.4692 38.0998C59.4674 38.1003 59.4664 38.1004 59.4662 38.1004C59.466 38.1004 59.4659 38.1004 59.4656 38.1004C59.4653 38.1004 59.4643 38.1003 59.4623 38.0997L59.3851 38.3698ZM59.5958 38.3516L59.713 38.6069L59.8184 38.5586L59.7012 38.3032L59.5839 38.0479L59.4786 38.0963L59.5958 38.3516ZM59.7012 38.3032L59.8184 38.5586L59.9237 38.5102L59.8065 38.2549L59.6893 37.9995L59.5839 38.0479L59.7012 38.3032ZM59.8065 38.2549L59.9237 38.5102C59.9501 38.4981 59.9595 38.4961 59.9562 38.4969C59.954 38.4973 59.9427 38.4998 59.9247 38.4997C59.9072 38.4996 59.8739 38.4971 59.8348 38.4797L59.949 38.223L60.0631 37.9663C59.9666 37.9234 59.8748 37.9393 59.8335 37.9485C59.7827 37.9599 59.7332 37.9794 59.6893 37.9995L59.8065 38.2549ZM59.949 38.223L59.8348 38.4797L59.8719 38.4962L59.9861 38.2395L60.1002 37.9828L60.0631 37.9663L59.949 38.223ZM59.9861 38.2395L59.7648 38.0664L59.739 38.0994L59.9603 38.2725L60.1816 38.4456L60.2074 38.4126L59.9861 38.2395ZM59.9603 38.2725V38.5534H60.0603V38.2725V37.9915H59.9603V38.2725Z" fill="black"/>
<path d="M43.4762 40.8011C43.321 40.8011 43.1952 40.9269 43.1952 41.082C43.1952 41.2372 43.321 41.363 43.4762 41.363V41.082V40.8011ZM43.5762 41.082V41.363H43.5891L43.602 41.3618L43.5762 41.082ZM44.003 41.043L43.9778 40.7631L44.003 41.043ZM44.5298 40.982L44.4869 40.7044V40.7044L44.5298 40.982ZM44.6351 40.9657L44.5922 40.6881L44.6351 40.9657ZM44.8458 40.9664L44.8011 41.2438L44.8458 40.9664ZM45.3726 41.1019L45.2681 41.3627L45.3726 41.1019ZM45.478 41.1441L45.5825 40.8834L45.478 41.1441ZM45.6887 41.168L45.6405 40.8913L45.6887 41.168ZM46.2155 41.0571L46.1434 40.7856L46.2155 41.0571ZM46.3208 41.0291L46.393 41.3006L46.3208 41.0291ZM46.5316 41.0423L46.4292 41.304L46.5316 41.0423ZM46.6369 41.0835L46.7392 40.8219L46.6369 41.0835ZM46.953 41.1602L46.9683 41.4407L46.953 41.1602ZM47.3744 41.1075L47.2851 40.8412L47.3744 41.1075ZM47.4798 41.0722L47.5691 41.3386L47.4798 41.0722ZM47.5851 41.0369L47.4958 40.7705L47.5851 41.0369ZM47.7958 40.9805L47.8507 41.2561L47.7958 40.9805ZM47.9012 40.9595L47.8463 40.684L47.9012 40.9595ZM48.0066 40.9386L47.9517 40.663L48.0066 40.9386ZM48.2173 40.974L48.35 40.7264L48.2173 40.974ZM48.3226 41.0305L48.1899 41.2781L48.3226 41.0305ZM48.428 41.0869L48.5607 40.8393L48.428 41.0869ZM48.6387 41.115L48.5656 40.8437L48.6387 41.115ZM48.7441 41.0866L48.8171 41.3579L48.7441 41.0866ZM48.8494 41.0582L48.7763 40.7869L48.8494 41.0582ZM49.2708 41.0825L49.2246 41.3597L49.2708 41.0825ZM49.4816 41.0621L49.5768 41.3265L49.4816 41.0621ZM49.5869 41.0242L49.4917 40.7599L49.5869 41.0242ZM49.6923 40.9862L49.7875 41.2505L49.6923 40.9862ZM49.903 40.9982L49.7825 41.2521L49.903 40.9982ZM50.1137 41.0982L50.2341 40.8444L50.1137 41.0982ZM50.3244 41.1339L50.2865 40.8555L50.3244 41.1339ZM50.7458 41.0647L50.6783 40.792L50.7458 41.0647ZM50.8512 41.0386L50.9187 41.3114L50.8512 41.0386ZM50.9566 41.0126L50.8891 40.7398L50.9566 41.0126ZM51.1673 41.0245L51.2627 40.7603L51.1673 41.0245ZM51.2726 41.0626L51.1772 41.3268L51.2726 41.0626ZM51.378 41.1007L51.4734 40.8364L51.378 41.1007ZM51.5887 41.1355L51.5801 40.8547L51.5887 41.1355ZM51.6941 41.1323L51.6855 40.8515L51.6941 41.1323ZM51.7994 41.129L51.808 41.4099L51.7994 41.129ZM52.0101 41.1013L51.9464 40.8277L52.0101 41.1013ZM52.1155 41.0768L52.1792 41.3504L52.1155 41.0768ZM52.2208 41.0522L52.2846 41.3259L52.2208 41.0522ZM52.4316 41.0093L52.3833 40.7325L52.4316 41.0093ZM52.5369 40.9909L52.4886 40.7142L52.5369 40.9909ZM52.6423 40.9726L52.6905 41.2493L52.6423 40.9726ZM52.853 41.0115L52.7186 41.2583L52.853 41.0115ZM52.9583 41.0689L53.0927 40.8222L52.9583 41.0689ZM53.0637 41.1263L53.198 40.8795L53.0637 41.1263ZM53.2744 41.1369L53.3883 41.3938L53.2744 41.1369ZM53.4851 41.0435L53.3713 40.7867L53.4851 41.0435ZM53.6958 41.0474L53.5742 41.3006L53.6958 41.0474ZM53.8012 41.098L53.6796 41.3512L53.8012 41.098ZM53.9066 41.1486L54.0282 40.8953L53.9066 41.1486ZM54.1173 41.1655L54.0318 40.8979L54.1173 41.1655ZM54.328 41.0982L54.4135 41.3658L54.328 41.0982ZM54.5387 41.031L54.4535 40.7633L54.5387 41.031ZM54.6441 40.9975L54.7292 41.2652L54.6441 40.9975ZM54.7494 40.964L54.8346 41.2317L54.7494 40.964ZM54.9601 40.9513L54.9055 41.2269L54.9601 40.9513ZM55.0655 40.9722L55.0109 41.2478L55.0655 40.9722ZM55.1708 40.9931L55.2254 40.7175L55.1708 40.9931ZM55.3816 41.0292L55.3414 41.3072L55.3816 41.0292ZM55.4869 41.0444L55.5271 40.7663V40.7663L55.4869 41.0444ZM55.5923 41.0596L55.6324 40.7815L55.5923 41.0596ZM55.803 41.0636L55.8328 41.3429L55.803 41.0636ZM56.0137 41.0411L55.9839 40.7617L56.0137 41.0411ZM56.2244 41.0276L56.2185 40.7467L56.2244 41.0276ZM56.3298 41.0254L56.3238 40.7445L56.3298 41.0254ZM56.6458 41.0536L56.5625 41.3219L56.6458 41.0536ZM56.7512 41.0864L56.8345 40.818V40.818L56.7512 41.0864ZM56.8566 41.1191L56.9399 40.8508L56.8566 41.1191ZM57.278 41.1456L57.2725 40.8647L57.278 41.1456ZM57.4204 41.1282L57.5281 41.3877L57.4204 41.1282ZM57.4575 41.1128L57.5652 41.3723L57.9188 41.2256L57.6728 40.9323L57.4575 41.1128ZM57.4317 41.082V40.8011H56.8295L57.2165 41.2626L57.4317 41.082ZM57.5317 41.363C57.6869 41.363 57.8127 41.2372 57.8127 41.082C57.8127 40.9269 57.6869 40.8011 57.5317 40.8011V41.082V41.363ZM43.4762 41.082V41.363H43.5762V41.082V40.8011H43.4762V41.082ZM43.5762 41.082L43.602 41.3618L43.7627 41.347L43.7369 41.0672L43.7112 40.7875L43.5504 40.8023L43.5762 41.082ZM43.7369 41.0672L43.7627 41.347C43.8697 41.3371 43.9582 41.3291 44.0281 41.3228L44.003 41.043L43.9778 40.7631C43.9073 40.7695 43.8184 40.7776 43.7112 40.7875L43.7369 41.0672ZM44.003 41.043L44.0281 41.3228L44.1335 41.3133L44.1083 41.0335L44.0832 40.7537L43.9778 40.7631L44.003 41.043ZM44.1083 41.0335L44.1335 41.3133L44.2388 41.3039L44.2137 41.024L44.1886 40.7442L44.0832 40.7537L44.1083 41.0335ZM44.2137 41.024L44.2388 41.3039C44.3151 41.297 44.3912 41.2877 44.4673 41.2759L44.4244 40.9983L44.3815 40.7206C44.3171 40.7306 44.2528 40.7384 44.1886 40.7442L44.2137 41.024ZM44.4244 40.9983L44.4673 41.2759L44.5727 41.2597L44.5298 40.982L44.4869 40.7044L44.3815 40.7206L44.4244 40.9983ZM44.5298 40.982L44.5727 41.2597L44.678 41.2434L44.6351 40.9657L44.5922 40.6881L44.4869 40.7044L44.5298 40.982ZM44.6351 40.9657L44.678 41.2434C44.7192 41.237 44.7599 41.2371 44.8011 41.2438L44.8458 40.9664L44.8906 40.6891C44.7913 40.6731 44.6915 40.6727 44.5922 40.6881L44.6351 40.9657ZM44.8458 40.9664L44.8011 41.2438L44.9065 41.2608L44.9512 40.9834L44.9959 40.7061L44.8906 40.6891L44.8458 40.9664ZM44.9512 40.9834L44.9065 41.2608L45.0118 41.2778L45.0566 41.0004L45.1013 40.7231L44.9959 40.7061L44.9512 40.9834ZM45.0566 41.0004L45.0118 41.2778C45.0603 41.2856 45.1105 41.2995 45.1627 41.3204L45.2673 41.0597L45.3718 40.7989C45.2835 40.7635 45.1933 40.7379 45.1013 40.7231L45.0566 41.0004ZM45.2673 41.0597L45.1627 41.3204L45.2681 41.3627L45.3726 41.1019L45.4772 40.8411L45.3718 40.7989L45.2673 41.0597ZM45.3726 41.1019L45.2681 41.3627L45.3734 41.4049L45.478 41.1441L45.5825 40.8834L45.4772 40.8411L45.3726 41.1019ZM45.478 41.1441L45.3734 41.4049C45.489 41.4512 45.612 41.4666 45.7368 41.4448L45.6887 41.168L45.6405 40.8913C45.6249 40.894 45.6075 40.8934 45.5825 40.8834L45.478 41.1441ZM45.6887 41.168L45.7368 41.4448L45.8422 41.4265L45.7941 41.1497L45.7459 40.8729L45.6405 40.8913L45.6887 41.168ZM45.7941 41.1497L45.8422 41.4265L45.9476 41.4082L45.8994 41.1314L45.8513 40.8546L45.7459 40.8729L45.7941 41.1497ZM45.8994 41.1314L45.9476 41.4082C46.026 41.3945 46.1043 41.3773 46.1822 41.3566L46.1101 41.0851L46.038 40.8135C45.9755 40.8301 45.9133 40.8438 45.8513 40.8546L45.8994 41.1314ZM46.1101 41.0851L46.1822 41.3566L46.2876 41.3286L46.2155 41.0571L46.1434 40.7856L46.038 40.8135L46.1101 41.0851ZM46.2155 41.0571L46.2876 41.3286L46.393 41.3006L46.3208 41.0291L46.2487 40.7576L46.1434 40.7856L46.2155 41.0571ZM46.3208 41.0291L46.393 41.3006C46.4032 41.2979 46.4124 41.2974 46.4292 41.304L46.5316 41.0423L46.6339 40.7807C46.5103 40.7323 46.379 40.723 46.2487 40.7576L46.3208 41.0291ZM46.5316 41.0423L46.4292 41.304L46.5346 41.3452L46.6369 41.0835L46.7392 40.8219L46.6339 40.7807L46.5316 41.0423ZM46.6369 41.0835L46.5346 41.3452L46.6399 41.3864L46.7423 41.1247L46.8446 40.8631L46.7392 40.8219L46.6369 41.0835ZM46.7423 41.1247L46.6399 41.3864C46.7449 41.4274 46.8551 41.4469 46.9683 41.4407L46.953 41.1602L46.9376 40.8796C46.9104 40.8811 46.8802 40.877 46.8446 40.8631L46.7423 41.1247ZM46.953 41.1602L46.9683 41.4407L47.0737 41.4349L47.0583 41.1544L47.043 40.8739L46.9376 40.8796L46.953 41.1602ZM47.0583 41.1544L47.0737 41.4349L47.179 41.4292L47.1637 41.1487L47.1484 40.8681L47.043 40.8739L47.0583 41.1544ZM47.1637 41.1487L47.179 41.4292C47.2758 41.4239 47.3709 41.4051 47.4638 41.3739L47.3744 41.1075L47.2851 40.8412C47.2375 40.8571 47.1921 40.8657 47.1484 40.8681L47.1637 41.1487ZM47.3744 41.1075L47.4638 41.3739L47.5691 41.3386L47.4798 41.0722L47.3904 40.8058L47.2851 40.8412L47.3744 41.1075ZM47.4798 41.0722L47.5691 41.3386L47.6745 41.3032L47.5851 41.0369L47.4958 40.7705L47.3904 40.8058L47.4798 41.0722ZM47.5851 41.0369L47.6745 41.3032C47.7338 41.2833 47.7926 41.2677 47.8507 41.2561L47.7958 40.9805L47.741 40.705C47.6586 40.7214 47.5769 40.7433 47.4958 40.7705L47.5851 41.0369ZM47.7958 40.9805L47.8507 41.2561L47.9561 41.2351L47.9012 40.9595L47.8463 40.684L47.741 40.705L47.7958 40.9805ZM47.9012 40.9595L47.9561 41.2351L48.0614 41.2141L48.0066 40.9386L47.9517 40.663L47.8463 40.684L47.9012 40.9595ZM48.0066 40.9386L48.0614 41.2141C48.0633 41.2137 48.064 41.2138 48.0653 41.214C48.067 41.2143 48.0732 41.2156 48.0846 41.2217L48.2173 40.974L48.35 40.7264C48.2292 40.6617 48.093 40.6349 47.9517 40.663L48.0066 40.9386ZM48.2173 40.974L48.0846 41.2217L48.1899 41.2781L48.3226 41.0305L48.4553 40.7828L48.35 40.7264L48.2173 40.974ZM48.3226 41.0305L48.1899 41.2781L48.2953 41.3346L48.428 41.0869L48.5607 40.8393L48.4553 40.7828L48.3226 41.0305ZM48.428 41.0869L48.2953 41.3346C48.422 41.4025 48.5656 41.4256 48.7118 41.3863L48.6387 41.115L48.5656 40.8437C48.5651 40.8438 48.5656 40.8437 48.5669 40.8436C48.5682 40.8435 48.5695 40.8435 48.5704 40.8437C48.5727 40.844 48.5697 40.8441 48.5607 40.8393L48.428 41.0869ZM48.6387 41.115L48.7118 41.3863L48.8171 41.3579L48.7441 41.0866L48.671 40.8153L48.5656 40.8437L48.6387 41.115ZM48.7441 41.0866L48.8171 41.3579L48.9225 41.3295L48.8494 41.0582L48.7763 40.7869L48.671 40.8153L48.7441 41.0866ZM48.8494 41.0582L48.9225 41.3295C48.9547 41.3208 48.9843 41.3196 49.0139 41.3245L49.0601 41.0474L49.1063 40.7703C48.9955 40.7518 48.8846 40.7578 48.7763 40.7869L48.8494 41.0582ZM49.0601 41.0474L49.0139 41.3245L49.1193 41.3421L49.1655 41.065L49.2117 40.7878L49.1063 40.7703L49.0601 41.0474ZM49.1655 41.065L49.1193 41.3421L49.2246 41.3597L49.2708 41.0825L49.317 40.8054L49.2117 40.7878L49.1655 41.065ZM49.2708 41.0825L49.2246 41.3597C49.3447 41.3797 49.4636 41.3673 49.5768 41.3265L49.4816 41.0621L49.3863 40.7978C49.3591 40.8076 49.3375 40.8088 49.317 40.8054L49.2708 41.0825ZM49.4816 41.0621L49.5768 41.3265L49.6822 41.2885L49.5869 41.0242L49.4917 40.7599L49.3863 40.7978L49.4816 41.0621ZM49.5869 41.0242L49.6822 41.2885L49.7875 41.2505L49.6923 40.9862L49.597 40.7219L49.4917 40.7599L49.5869 41.0242ZM49.6923 40.9862L49.7875 41.2505C49.7887 41.2501 49.7885 41.2503 49.7871 41.2505C49.7856 41.2507 49.7837 41.2508 49.7816 41.2507C49.7769 41.2505 49.7767 41.2493 49.7825 41.2521L49.903 40.9982L50.0234 40.7444C49.8887 40.6805 49.7409 40.6701 49.597 40.7219L49.6923 40.9862ZM49.903 40.9982L49.7825 41.2521L49.8879 41.3021L50.0083 41.0482L50.1288 40.7944L50.0234 40.7444L49.903 40.9982ZM50.0083 41.0482L49.8879 41.3021L49.9932 41.3521L50.1137 41.0982L50.2341 40.8444L50.1288 40.7944L50.0083 41.0482ZM50.1137 41.0982L49.9932 41.3521C50.1078 41.4064 50.2329 41.4299 50.3624 41.4123L50.3244 41.1339L50.2865 40.8555C50.2755 40.857 50.2601 40.8567 50.2341 40.8444L50.1137 41.0982ZM50.3244 41.1339L50.3624 41.4123L50.4677 41.3979L50.4298 41.1195L50.3918 40.8411L50.2865 40.8555L50.3244 41.1339ZM50.4298 41.1195L50.4677 41.3979L50.5731 41.3835L50.5351 41.1051L50.4972 40.8268L50.3918 40.8411L50.4298 41.1195ZM50.5351 41.1051L50.5731 41.3835C50.6535 41.3726 50.7336 41.3572 50.8133 41.3374L50.7458 41.0647L50.6783 40.792C50.6176 40.807 50.5573 40.8186 50.4972 40.8268L50.5351 41.1051ZM50.7458 41.0647L50.8133 41.3374L50.9187 41.3114L50.8512 41.0386L50.7837 40.7659L50.6783 40.792L50.7458 41.0647ZM50.8512 41.0386L50.9187 41.3114L51.0241 41.2853L50.9566 41.0126L50.8891 40.7398L50.7837 40.7659L50.8512 41.0386ZM50.9566 41.0126L51.0241 41.2853C51.0385 41.2817 51.0521 41.2817 51.0718 41.2888L51.1673 41.0245L51.2627 40.7603C51.142 40.7167 51.0151 40.7086 50.8891 40.7398L50.9566 41.0126ZM51.1673 41.0245L51.0718 41.2888L51.1772 41.3268L51.2726 41.0626L51.3681 40.7984L51.2627 40.7603L51.1673 41.0245ZM51.2726 41.0626L51.1772 41.3268L51.2825 41.3649L51.378 41.1007L51.4734 40.8364L51.3681 40.7984L51.2726 41.0626ZM51.378 41.1007L51.2825 41.3649C51.384 41.4016 51.4895 41.4196 51.5973 41.4163L51.5887 41.1355L51.5801 40.8547C51.5475 40.8557 51.5125 40.8505 51.4734 40.8364L51.378 41.1007ZM51.5887 41.1355L51.5973 41.4163L51.7027 41.4131L51.6941 41.1323L51.6855 40.8515L51.5801 40.8547L51.5887 41.1355ZM51.6941 41.1323L51.7027 41.4131L51.808 41.4099L51.7994 41.129L51.7908 40.8482L51.6855 40.8515L51.6941 41.1323ZM51.7994 41.129L51.808 41.4099C51.8973 41.4071 51.986 41.3954 52.0738 41.3749L52.0101 41.1013L51.9464 40.8277C51.8938 40.8399 51.842 40.8467 51.7908 40.8482L51.7994 41.129ZM52.0101 41.1013L52.0738 41.3749L52.1792 41.3504L52.1155 41.0768L52.0518 40.8031L51.9464 40.8277L52.0101 41.1013ZM52.1155 41.0768L52.1792 41.3504L52.2846 41.3259L52.2208 41.0522L52.1571 40.7786L52.0518 40.8031L52.1155 41.0768ZM52.2208 41.0522L52.2846 41.3259C52.3497 41.3107 52.4148 41.2974 52.4798 41.2861L52.4316 41.0093L52.3833 40.7325C52.3078 40.7457 52.2324 40.7611 52.1571 40.7786L52.2208 41.0522ZM52.4316 41.0093L52.4798 41.2861L52.5852 41.2677L52.5369 40.9909L52.4886 40.7142L52.3833 40.7325L52.4316 41.0093ZM52.5369 40.9909L52.5852 41.2677L52.6905 41.2493L52.6423 40.9726L52.594 40.6958L52.4886 40.7142L52.5369 40.9909ZM52.6423 40.9726L52.6905 41.2493C52.6927 41.249 52.6942 41.2489 52.6965 41.2494C52.6992 41.2499 52.7065 41.2517 52.7186 41.2583L52.853 41.0115L52.9873 40.7648C52.8685 40.7001 52.7343 40.6713 52.594 40.6958L52.6423 40.9726ZM52.853 41.0115L52.7186 41.2583L52.824 41.3157L52.9583 41.0689L53.0927 40.8222L52.9873 40.7648L52.853 41.0115ZM52.9583 41.0689L52.824 41.3157L52.9293 41.373L53.0637 41.1263L53.198 40.8795L53.0927 40.8222L52.9583 41.0689ZM53.0637 41.1263L52.9293 41.373C53.0726 41.451 53.2345 41.4619 53.3883 41.3938L53.2744 41.1369L53.1605 40.8801C53.1607 40.88 53.1632 40.879 53.1676 40.8781C53.1721 40.8772 53.1775 40.8767 53.1832 40.877C53.1956 40.8776 53.2012 40.8813 53.198 40.8795L53.0637 41.1263ZM53.2744 41.1369L53.3883 41.3938L53.4936 41.3471L53.3798 41.0902L53.2659 40.8334L53.1605 40.8801L53.2744 41.1369ZM53.3798 41.0902L53.4936 41.3471L53.599 41.3003L53.4851 41.0435L53.3713 40.7867L53.2659 40.8334L53.3798 41.0902ZM53.4851 41.0435L53.599 41.3003C53.6 41.2999 53.599 41.3005 53.5962 41.301C53.5933 41.3017 53.5896 41.3021 53.5853 41.302C53.5811 41.3019 53.5776 41.3014 53.5752 41.3008C53.5729 41.3002 53.5725 41.2998 53.5742 41.3006L53.6958 41.0474L53.8175 40.7941C53.6742 40.7253 53.5179 40.7216 53.3713 40.7867L53.4851 41.0435ZM53.6958 41.0474L53.5742 41.3006L53.6796 41.3512L53.8012 41.098L53.9228 40.8447L53.8175 40.7941L53.6958 41.0474ZM53.8012 41.098L53.6796 41.3512L53.7849 41.4018L53.9066 41.1486L54.0282 40.8953L53.9228 40.8447L53.8012 41.098ZM53.9066 41.1486L53.7849 41.4018C53.9158 41.4647 54.06 41.4787 54.2028 41.4331L54.1173 41.1655L54.0318 40.8979C54.0305 40.8983 54.0303 40.8982 54.0312 40.8981C54.0321 40.898 54.0333 40.898 54.0344 40.898C54.0372 40.8983 54.0355 40.8988 54.0282 40.8953L53.9066 41.1486ZM54.1173 41.1655L54.2028 41.4331L54.3081 41.3995L54.2226 41.1318L54.1371 40.8642L54.0318 40.8979L54.1173 41.1655ZM54.2226 41.1318L54.3081 41.3995L54.4135 41.3658L54.328 41.0982L54.2425 40.8305L54.1371 40.8642L54.2226 41.1318ZM54.328 41.0982L54.4135 41.3658C54.4836 41.3434 54.5537 41.321 54.6239 41.2987L54.5387 41.031L54.4535 40.7633C54.3832 40.7856 54.3128 40.8081 54.2425 40.8305L54.328 41.0982ZM54.5387 41.031L54.6239 41.2987L54.7292 41.2652L54.6441 40.9975L54.5589 40.7297L54.4535 40.7633L54.5387 41.031ZM54.6441 40.9975L54.7292 41.2652L54.8346 41.2317L54.7494 40.964L54.6642 40.6962L54.5589 40.7297L54.6441 40.9975ZM54.7494 40.964L54.8346 41.2317C54.861 41.2233 54.8832 41.2225 54.9055 41.2269L54.9601 40.9513L55.0147 40.6757C54.8966 40.6523 54.7783 40.66 54.6642 40.6962L54.7494 40.964ZM54.9601 40.9513L54.9055 41.2269L55.0109 41.2478L55.0655 40.9722L55.1201 40.6966L55.0147 40.6757L54.9601 40.9513ZM55.0655 40.9722L55.0109 41.2478L55.1162 41.2687L55.1708 40.9931L55.2254 40.7175L55.1201 40.6966L55.0655 40.9722ZM55.1708 40.9931L55.1162 41.2687C55.1912 41.2835 55.2663 41.2964 55.3414 41.3072L55.3816 41.0292L55.4217 40.7511C55.3564 40.7416 55.2909 40.7304 55.2254 40.7175L55.1708 40.9931ZM55.3816 41.0292L55.3414 41.3072L55.4467 41.3224L55.4869 41.0444L55.5271 40.7663L55.4217 40.7511L55.3816 41.0292ZM55.4869 41.0444L55.4467 41.3224L55.5521 41.3377L55.5923 41.0596L55.6324 40.7815L55.5271 40.7663L55.4869 41.0444ZM55.5923 41.0596L55.5521 41.3377C55.6454 41.3511 55.7392 41.3529 55.8328 41.3429L55.803 41.0636L55.7732 40.7842C55.7263 40.7892 55.6796 40.7883 55.6324 40.7815L55.5923 41.0596ZM55.803 41.0636L55.8328 41.3429L55.9382 41.3317L55.9083 41.0523L55.8785 40.773L55.7732 40.7842L55.803 41.0636ZM55.9083 41.0523L55.9382 41.3317L56.0435 41.3204L56.0137 41.0411L55.9839 40.7617L55.8785 40.773L55.9083 41.0523ZM56.0137 41.0411L56.0435 41.3204C56.1059 41.3138 56.1681 41.3098 56.2304 41.3085L56.2244 41.0276L56.2185 40.7467C56.1402 40.7484 56.062 40.7534 55.9839 40.7617L56.0137 41.0411ZM56.2244 41.0276L56.2304 41.3085L56.3357 41.3063L56.3298 41.0254L56.3238 40.7445L56.2185 40.7467L56.2244 41.0276ZM56.3298 41.0254L56.3357 41.3063L56.4411 41.304L56.4351 41.0231L56.4292 40.7422L56.3238 40.7445L56.3298 41.0254ZM56.4351 41.0231L56.4411 41.304C56.4797 41.3032 56.5198 41.3087 56.5625 41.3219L56.6458 41.0536L56.7292 40.7853C56.6314 40.755 56.5311 40.7401 56.4292 40.7422L56.4351 41.0231ZM56.6458 41.0536L56.5625 41.3219L56.6679 41.3547L56.7512 41.0864L56.8345 40.818L56.7292 40.7853L56.6458 41.0536ZM56.7512 41.0864L56.6679 41.3547L56.7732 41.3874L56.8566 41.1191L56.9399 40.8508L56.8345 40.818L56.7512 41.0864ZM56.8566 41.1191L56.7732 41.3874C56.8708 41.4177 56.971 41.4326 57.0727 41.4306L57.0673 41.1497L57.0618 40.8688C57.023 40.8696 56.9827 40.8641 56.9399 40.8508L56.8566 41.1191ZM57.0673 41.1497L57.0727 41.4306L57.1781 41.4286L57.1726 41.1477L57.1671 40.8668L57.0618 40.8688L57.0673 41.1497ZM57.1726 41.1477L57.1781 41.4286L57.2835 41.4265L57.278 41.1456L57.2725 40.8647L57.1671 40.8668L57.1726 41.1477ZM57.278 41.1456L57.2835 41.4265C57.3494 41.4252 57.4478 41.421 57.5281 41.3877L57.4204 41.1282L57.3128 40.8687C57.3262 40.8631 57.3352 40.8611 57.3366 40.8608C57.3386 40.8604 57.3374 40.8607 57.3321 40.8614C57.3212 40.8627 57.302 40.8642 57.2725 40.8647L57.278 41.1456ZM57.4204 41.1282L57.5281 41.3877L57.5652 41.3723L57.4575 41.1128L57.3499 40.8533L57.3128 40.8687L57.4204 41.1282ZM57.4575 41.1128L57.6728 40.9323L57.647 40.9015L57.4317 41.082L57.2165 41.2626L57.2423 41.2933L57.4575 41.1128ZM57.4317 41.082V41.363H57.5317V41.082V40.8011H57.4317V41.082Z" fill="black"/>
<defs>
<linearGradient id="paint0_linear_187_70" x1="77.1905" y1="33.4952" x2="24.0905" y2="66.3667" gradientUnits="userSpaceOnUse">
<stop stop-color="#86EFAC"/>
<stop offset="1" stop-color="#22C55E"/>
</linearGradient>
<linearGradient id="paint1_linear_187_70" x1="54.7801" y1="22.2414" x2="24.897" y2="-3.0359" gradientUnits="userSpaceOnUse">
<stop stop-color="#86EFAC"/>
<stop offset="1" stop-color="#22C55E"/>
</linearGradient>
</defs>
</svg>
