<svg width="265" height="73" viewBox="0 0 265 73" fill="none" xmlns="http://www.w3.org/2000/svg">
<path d="M31.2308 36.1236C31.2308 34.7284 30.956 33.3468 30.422 32.0578C29.8881 30.7687 29.1055 29.5975 28.1189 28.6109C27.1323 27.6243 25.9611 26.8417 24.672 26.3078C23.383 25.7738 22.0014 25.499 20.6062 25.499C19.2109 25.499 17.8293 25.7738 16.5403 26.3078C15.2513 26.8417 14.08 27.6243 13.0934 28.6109C12.1069 29.5975 11.3243 30.7687 10.7903 32.0578C10.2564 33.3468 9.98157 34.7284 9.98157 36.1236H12.9929C12.9929 35.1238 13.1898 34.1338 13.5724 33.2101C13.955 32.2865 14.5158 31.4472 15.2228 30.7402C15.9297 30.0333 16.769 29.4725 17.6927 29.0899C18.6164 28.7073 19.6064 28.5103 20.6062 28.5103C21.606 28.5103 22.596 28.7073 23.5197 29.0899C24.4433 29.4725 25.2826 30.0333 25.9896 30.7402C26.6965 31.4472 27.2573 32.2865 27.6399 33.2101C28.0225 34.1338 28.2195 35.1238 28.2195 36.1236H31.2308Z" fill="white"/>
<path d="M40.1219 25.499C38.7267 25.499 37.3451 25.7738 36.0561 26.3077C34.767 26.8416 33.5958 27.6242 32.6092 28.6108C31.6226 29.5974 30.84 30.7687 30.3061 32.0577C29.7721 33.3467 29.4973 34.7283 29.4973 36.1236H32.5086C32.5086 35.1238 32.7055 34.1338 33.0881 33.2101C33.4707 32.2864 34.0315 31.4471 34.7385 30.7401C35.4455 30.0332 36.2847 29.4724 37.2084 29.0898C38.1321 28.7072 39.1221 28.5103 40.1219 28.5103V25.499Z" fill="white"/>
<path d="M41.5198 25.499C42.915 25.499 44.2966 25.7738 45.5857 26.3077C46.8747 26.8416 48.0459 27.6242 49.0325 28.6108C50.0191 29.5974 50.8017 30.7687 51.3357 32.0577C51.8696 33.3467 52.1444 34.7283 52.1444 36.1236H49.1331C49.1331 35.1238 48.9362 34.1338 48.5536 33.2101C48.171 32.2864 47.6102 31.4471 46.9032 30.7401C46.1963 30.0332 45.357 29.4724 44.4333 29.0898C43.5096 28.7072 42.5196 28.5103 41.5198 28.5103V25.499Z" fill="white"/>
<path d="M62.4894 26.6174C62.4894 25.2222 62.2146 23.8406 61.6807 22.5515C61.1468 21.2625 60.3642 20.0913 59.3776 19.1047C58.391 18.1181 57.2197 17.3355 55.9307 16.8015C54.6417 16.2676 53.2601 15.9928 51.8648 15.9928C50.4696 15.9928 49.088 16.2676 47.799 16.8015C46.5099 17.3355 45.3387 18.1181 44.3521 19.1047C43.3655 20.0913 42.5829 21.2625 42.049 22.5515C41.515 23.8406 41.2402 25.2222 41.2402 26.6174H44.2515C44.2515 25.6176 44.4485 24.6276 44.8311 23.7039C45.2137 22.7802 45.7745 21.9409 46.4814 21.234C47.1884 20.527 48.0277 19.9662 48.9514 19.5836C49.875 19.201 50.865 19.0041 51.8648 19.0041C52.8646 19.0041 53.8546 19.201 54.7783 19.5836C55.702 19.9662 56.5413 20.527 57.2483 21.234C57.9552 21.9409 58.516 22.7802 58.8986 23.7039C59.2812 24.6276 59.4781 25.6176 59.4781 26.6174H62.4894Z" fill="white"/>
<path d="M40.5693 26.6174C40.5693 25.2222 40.2945 23.8406 39.7605 22.5515C39.2266 21.2625 38.444 20.0913 37.4574 19.1047C36.4708 18.1181 35.2996 17.3355 34.0105 16.8015C32.7215 16.2676 31.3399 15.9928 29.9447 15.9928C28.5494 15.9928 27.1678 16.2676 25.8788 16.8015C24.5898 17.3355 23.4185 18.1181 22.4319 19.1047C21.4454 20.0913 20.6628 21.2625 20.1288 22.5515C19.5949 23.8406 19.3201 25.2222 19.3201 26.6174H22.3314C22.3314 25.6176 22.5283 24.6276 22.9109 23.7039C23.2935 22.7802 23.8543 21.9409 24.5613 21.234C25.2682 20.527 26.1075 19.9662 27.0312 19.5836C27.9549 19.201 28.9449 19.0041 29.9447 19.0041C30.9445 19.0041 31.9345 19.201 32.8582 19.5836C33.7818 19.9662 34.6211 20.527 35.3281 21.234C36.035 21.9409 36.5958 22.7802 36.9784 23.7039C37.361 24.6276 37.558 25.6176 37.558 26.6174H40.5693Z" fill="white"/>
<path d="M51.5853 17.2789C51.5853 15.8837 51.3105 14.5021 50.7765 13.213C50.2426 11.924 49.46 10.7528 48.4734 9.76617C47.4868 8.77959 46.3156 7.99698 45.0265 7.46305C43.7375 6.92911 42.3559 6.6543 40.9607 6.6543C39.5654 6.6543 38.1838 6.92911 36.8948 7.46305C35.6058 7.99698 34.4345 8.77959 33.4479 9.76617C32.4613 10.7528 31.6787 11.924 31.1448 13.213C30.6109 14.5021 30.3361 15.8837 30.3361 17.2789H33.3474C33.3474 16.2791 33.5443 15.2891 33.9269 14.3654C34.3095 13.4417 34.8703 12.6024 35.5772 11.8955C36.2842 11.1885 37.1235 10.6277 38.0472 10.2451C38.9709 9.86252 39.9609 9.6656 40.9607 9.6656C41.9605 9.6656 42.9505 9.86252 43.8741 10.2451C44.7978 10.6277 45.6371 11.1885 46.3441 11.8955C47.051 12.6024 47.6118 13.4417 47.9944 14.3654C48.377 15.2891 48.574 16.2791 48.574 17.2789H51.5853Z" fill="white"/>
<path d="M71.8279 36.1236C71.8279 34.7284 71.5531 33.3468 71.0192 32.0578C70.4853 30.7687 69.7027 29.5975 68.7161 28.6109C67.7295 27.6243 66.5582 26.8417 65.2692 26.3078C63.9802 25.7738 62.5986 25.499 61.2033 25.499C59.8081 25.499 58.4265 25.7738 57.1375 26.3078C55.8484 26.8417 54.6772 27.6243 53.6906 28.6109C52.704 29.5975 51.9214 30.7687 51.3875 32.0578C50.8535 33.3468 50.5787 34.7284 50.5787 36.1236H53.59C53.59 35.1238 53.787 34.1338 54.1696 33.2101C54.5522 32.2865 55.113 31.4472 55.8199 30.7402C56.5269 30.0333 57.3662 29.4725 58.2899 29.0899C59.2135 28.7073 60.2035 28.5103 61.2033 28.5103C62.2031 28.5103 63.1931 28.7073 64.1168 29.0899C65.0405 29.4725 65.8798 30.0333 66.5868 30.7402C67.2937 31.4472 67.8545 32.2865 68.2371 33.2101C68.6197 34.1338 68.8166 35.1238 68.8166 36.1236H71.8279Z" fill="white"/>
<rect x="32.4609" y="29.9166" width="2.90779" height="35.2849" fill="white"/>
<rect x="37.6615" y="26.3378" width="2.90779" height="38.8637" fill="white"/>
<rect x="41.2402" y="26.5055" width="2.90779" height="38.6959" fill="white"/>
<rect x="46.2729" y="29.1896" width="2.90779" height="36.0118" fill="white"/>
<rect x="46.2729" y="62.3496" width="15.7132" height="2.85187" fill="white"/>
<rect x="19.6555" y="62.3496" width="15.7132" height="2.85187" fill="white"/>
<path d="M85.8088 41.9874V31.5929H90.2261C91.3369 31.5929 92.1429 31.6875 92.6439 31.8765C93.1497 32.0609 93.5539 32.3918 93.8564 32.8692C94.1589 33.3466 94.3102 33.8926 94.3102 34.5071C94.3102 35.287 94.0809 35.9322 93.6224 36.4428C93.1639 36.9485 92.4785 37.2676 91.5662 37.4C92.02 37.6647 92.3934 37.9554 92.6865 38.2721C92.9843 38.5888 93.3837 39.1513 93.8847 39.9596L95.1539 41.9874H92.6439L91.1266 39.7256C90.5877 38.9173 90.219 38.4091 90.0205 38.2012C89.8219 37.9885 89.6116 37.8443 89.3894 37.7687C89.1673 37.6883 88.8151 37.6481 88.333 37.6481H87.9075V41.9874H85.8088ZM87.9075 35.989H89.4603C90.4672 35.989 91.0959 35.9464 91.3464 35.8613C91.5969 35.7763 91.7931 35.6297 91.9349 35.4217C92.0767 35.2138 92.1476 34.9538 92.1476 34.6418C92.1476 34.292 92.0531 34.0108 91.864 33.798C91.6796 33.5806 91.4173 33.4435 91.0769 33.3868C90.9068 33.3632 90.3963 33.3513 89.5454 33.3513H87.9075V35.989ZM96.2813 31.5929H98.38V37.2227C98.38 38.1161 98.406 38.6951 98.458 38.9598C98.5478 39.3853 98.7606 39.728 99.0962 39.9879C99.4365 40.2432 99.8997 40.3708 100.486 40.3708C101.081 40.3708 101.531 40.2503 101.833 40.0092C102.136 39.7634 102.318 39.4633 102.379 39.1087C102.44 38.7542 102.471 38.1657 102.471 37.3432V31.5929H104.57V37.0525C104.57 38.3004 104.513 39.182 104.4 39.6972C104.286 40.2125 104.076 40.6473 103.769 41.0019C103.466 41.3564 103.06 41.64 102.549 41.8527C102.039 42.0607 101.372 42.1647 100.55 42.1647C99.557 42.1647 98.8031 42.0512 98.2879 41.8243C97.7774 41.5927 97.3732 41.2949 97.0754 40.931C96.7776 40.5623 96.5814 40.177 96.4869 39.7752C96.3498 39.1796 96.2813 38.3004 96.2813 37.1376V31.5929ZM116.163 41.9874H113.88L112.972 39.6263H108.817L107.959 41.9874H105.733L109.781 31.5929H112.001L116.163 41.9874ZM112.298 37.875L110.866 34.0178L109.462 37.875H112.298ZM117.304 41.9874V31.5929H119.346L123.601 38.5344V31.5929H125.55V41.9874H123.445L119.254 35.209V41.9874H117.304ZM132.612 38.1657V36.4144H137.136V40.5552C136.696 40.9806 136.058 41.3564 135.222 41.6825C134.39 42.004 133.546 42.1647 132.69 42.1647C131.603 42.1647 130.655 41.9378 129.847 41.484C129.039 41.0255 128.431 40.3732 128.025 39.5271C127.618 38.6762 127.415 37.7521 127.415 36.7547C127.415 35.6723 127.642 34.7103 128.096 33.8689C128.55 33.0276 129.214 32.3823 130.088 31.9333C130.755 31.5882 131.584 31.4157 132.577 31.4157C133.867 31.4157 134.874 31.6875 135.597 32.2311C136.325 32.7699 136.793 33.5168 137.001 34.4716L134.917 34.8616C134.77 34.3511 134.494 33.9493 134.087 33.6562C133.685 33.3584 133.182 33.2095 132.577 33.2095C131.66 33.2095 130.93 33.5002 130.386 34.0817C129.847 34.6631 129.578 35.5257 129.578 36.6696C129.578 37.9034 129.852 38.8298 130.4 39.4491C130.948 40.0636 131.667 40.3708 132.556 40.3708C132.995 40.3708 133.435 40.2857 133.874 40.1156C134.319 39.9407 134.699 39.7303 135.016 39.4845V38.1657H132.612ZM143.092 41.9874V31.5929H146.233L148.119 38.6833L149.984 31.5929H153.132V41.9874H151.182V33.8051L149.119 41.9874H147.098L145.042 33.8051V41.9874H143.092ZM164.59 41.9874H162.307L161.399 39.6263H157.244L156.386 41.9874H154.16L158.209 31.5929H160.428L164.59 41.9874ZM160.726 37.875L159.293 34.0178L157.89 37.875H160.726ZM170.546 38.1657V36.4144H175.07V40.5552C174.63 40.9806 173.992 41.3564 173.155 41.6825C172.323 42.004 171.479 42.1647 170.624 42.1647C169.537 42.1647 168.589 41.9378 167.781 41.484C166.972 41.0255 166.365 40.3732 165.958 39.5271C165.552 38.6762 165.349 37.7521 165.349 36.7547C165.349 35.6723 165.576 34.7103 166.029 33.8689C166.483 33.0276 167.147 32.3823 168.022 31.9333C168.688 31.5882 169.518 31.4157 170.51 31.4157C171.801 31.4157 172.808 31.6875 173.531 32.2311C174.259 32.7699 174.727 33.5168 174.935 34.4716L172.85 34.8616C172.704 34.3511 172.427 33.9493 172.021 33.6562C171.619 33.3584 171.115 33.2095 170.51 33.2095C169.593 33.2095 168.863 33.5002 168.32 34.0817C167.781 34.6631 167.511 35.5257 167.511 36.6696C167.511 37.9034 167.785 38.8298 168.334 39.4491C168.882 40.0636 169.601 40.3708 170.489 40.3708C170.929 40.3708 171.368 40.2857 171.808 40.1156C172.252 39.9407 172.633 39.7303 172.95 39.4845V38.1657H170.546ZM186.386 41.9874H184.103L183.195 39.6263H179.04L178.182 41.9874H175.956L180.004 31.5929H182.224L186.386 41.9874ZM182.522 37.875L181.089 34.0178L179.685 37.875H182.522ZM187.527 41.9874V31.5929H189.569L193.824 38.5344V31.5929H195.773V41.9874H193.668L189.477 35.209V41.9874H187.527ZM202.835 38.1657V36.4144H207.359V40.5552C206.92 40.9806 206.281 41.3564 205.445 41.6825C204.613 42.004 203.769 42.1647 202.913 42.1647C201.826 42.1647 200.879 41.9378 200.07 41.484C199.262 41.0255 198.655 40.3732 198.248 39.5271C197.841 38.6762 197.638 37.7521 197.638 36.7547C197.638 35.6723 197.865 34.7103 198.319 33.8689C198.773 33.0276 199.437 32.3823 200.311 31.9333C200.978 31.5882 201.807 31.4157 202.8 31.4157C204.09 31.4157 205.097 31.6875 205.821 32.2311C206.548 32.7699 207.016 33.5168 207.224 34.4716L205.14 34.8616C204.993 34.3511 204.717 33.9493 204.31 33.6562C203.908 33.3584 203.405 33.2095 202.8 33.2095C201.883 33.2095 201.153 33.5002 200.609 34.0817C200.07 34.6631 199.801 35.5257 199.801 36.6696C199.801 37.9034 200.075 38.8298 200.623 39.4491C201.172 40.0636 201.89 40.3708 202.779 40.3708C203.218 40.3708 203.658 40.2857 204.098 40.1156C204.542 39.9407 204.922 39.7303 205.239 39.4845V38.1657H202.835ZM85.8301 58.9874V48.5929H87.9288V53.2088L92.1689 48.5929H94.9908L91.0769 52.6415L95.2035 58.9874H92.4879L89.6305 54.1092L87.9288 55.8464V58.9874H85.8301ZM96.2955 58.9874V48.5929H104.003V50.3513H98.3942V52.6557H103.613V54.407H98.3942V57.2361H104.201V58.9874H96.2955ZM105.953 58.9874V48.5929H109.094L110.98 55.6833L112.844 48.5929H115.993V58.9874H114.043V50.8051L111.979 58.9874H109.959L107.902 50.8051V58.9874H105.953ZM118.077 58.9874V48.5929H125.784V50.3513H120.176V52.6557H125.394V54.407H120.176V57.2361H125.983V58.9874H118.077ZM127.784 58.9874V48.5929H129.826L134.08 55.5344V48.5929H136.03V58.9874H133.924L129.734 52.209V58.9874H127.784ZM140.596 58.9874V50.3513H137.512V48.5929H145.772V50.3513H142.695V58.9874H140.596ZM147.133 58.9874V48.5929H154.841V50.3513H149.232V52.6557H154.451V54.407H149.232V57.2361H155.039V58.9874H147.133ZM156.826 58.9874V48.5929H161.243C162.354 48.5929 163.16 48.6875 163.661 48.8765C164.167 49.0609 164.571 49.3918 164.874 49.8692C165.176 50.3466 165.327 50.8926 165.327 51.5071C165.327 52.287 165.098 52.9322 164.64 53.4428C164.181 53.9485 163.496 54.2676 162.583 54.4C163.037 54.6647 163.411 54.9554 163.704 55.2721C164.001 55.5888 164.401 56.1513 164.902 56.9596L166.171 58.9874H163.661L162.144 56.7256C161.605 55.9173 161.236 55.4091 161.038 55.2012C160.839 54.9885 160.629 54.8443 160.407 54.7687C160.184 54.6883 159.832 54.6481 159.35 54.6481H158.925V58.9874H156.826ZM158.925 52.989H160.478C161.484 52.989 162.113 52.9464 162.364 52.8613C162.614 52.7763 162.81 52.6297 162.952 52.4217C163.094 52.2138 163.165 51.9538 163.165 51.6418C163.165 51.292 163.07 51.0108 162.881 50.798C162.697 50.5806 162.434 50.4435 162.094 50.3868C161.924 50.3632 161.413 50.3513 160.563 50.3513H158.925V52.989ZM167.249 58.9874V48.5929H169.348V58.9874H167.249ZM180.728 58.9874H178.445L177.537 56.6263H173.382L172.524 58.9874H170.298L174.346 48.5929H176.566L180.728 58.9874ZM176.863 54.875L175.431 51.0178L174.027 54.875H176.863ZM181.869 58.9874V48.5929H183.911L188.165 55.5344V48.5929H190.115V58.9874H188.009L183.819 52.209V58.9874H181.869ZM196.39 58.9874V48.5929H198.489V52.6841H202.601V48.5929H204.7V58.9874H202.601V54.4425H198.489V58.9874H196.39ZM206.863 48.5929H208.962V54.2227C208.962 55.1161 208.988 55.6951 209.04 55.9598C209.129 56.3853 209.342 56.728 209.678 56.9879C210.018 57.2432 210.481 57.3708 211.067 57.3708C211.663 57.3708 212.112 57.2503 212.415 57.0092C212.717 56.7634 212.899 56.4633 212.961 56.1087C213.022 55.7542 213.053 55.1657 213.053 54.3432V48.5929H215.151V54.0525C215.151 55.3004 215.095 56.182 214.981 56.6972C214.868 57.2125 214.657 57.6473 214.35 58.0019C214.048 58.3564 213.641 58.64 213.131 58.8527C212.62 59.0607 211.954 59.1647 211.131 59.1647C210.139 59.1647 209.385 59.0512 208.869 58.8243C208.359 58.5927 207.955 58.2949 207.657 57.931C207.359 57.5623 207.163 57.177 207.068 56.7752C206.931 56.1796 206.863 55.3004 206.863 54.1376V48.5929ZM217.399 58.9874V48.5929H219.498V53.2088L223.738 48.5929H226.56L222.646 52.6415L226.773 58.9874H224.057L221.2 54.1092L219.498 55.8464V58.9874H217.399ZM227.85 48.5929H229.949V54.2227C229.949 55.1161 229.975 55.6951 230.027 55.9598C230.117 56.3853 230.33 56.728 230.665 56.9879C231.006 57.2432 231.469 57.3708 232.055 57.3708C232.65 57.3708 233.1 57.2503 233.402 57.0092C233.705 56.7634 233.887 56.4633 233.948 56.1087C234.009 55.7542 234.04 55.1657 234.04 54.3432V48.5929H236.139V54.0525C236.139 55.3004 236.082 56.182 235.969 56.6972C235.855 57.2125 235.645 57.6473 235.338 58.0019C235.035 58.3564 234.629 58.64 234.118 58.8527C233.608 59.0607 232.941 59.1647 232.119 59.1647C231.126 59.1647 230.372 59.0512 229.857 58.8243C229.346 58.5927 228.942 58.2949 228.644 57.931C228.347 57.5623 228.15 57.177 228.056 56.7752C227.919 56.1796 227.85 55.3004 227.85 54.1376V48.5929ZM238.33 58.9874V48.5929H241.471L243.357 55.6833L245.222 48.5929H248.37V58.9874H246.42V50.8051L244.357 58.9874H242.336L240.28 50.8051V58.9874H238.33Z" fill="white"/>
</svg>
