<svg width="1357" height="1357" viewBox="0 0 1357 1357" fill="none" xmlns="http://www.w3.org/2000/svg">
<path d="M505 682C505 657.049 500.086 632.342 490.537 609.29C480.989 586.238 466.993 565.293 449.35 547.65C431.707 530.007 410.762 516.011 387.71 506.463C364.658 496.914 339.951 492 315 492C290.049 492 265.342 496.914 242.29 506.463C219.238 516.011 198.293 530.007 180.65 547.65C163.007 565.293 149.011 586.238 139.463 609.29C129.914 632.342 125 657.049 125 682H178.851C178.851 664.121 182.373 646.416 189.215 629.898C196.057 613.38 206.086 598.371 218.728 585.728C231.371 573.086 246.38 563.057 262.898 556.215C279.416 549.373 297.121 545.851 315 545.851C332.879 545.851 350.584 549.373 367.102 556.215C383.62 563.057 398.629 573.086 411.272 585.728C423.914 598.371 433.943 613.38 440.785 629.898C447.627 646.416 451.149 664.121 451.149 682H505Z" fill="white"/>
<path d="M664 492C639.049 492 614.342 496.914 591.29 506.463C568.238 516.011 547.293 530.007 529.65 547.65C512.007 565.293 498.011 586.238 488.463 609.29C478.914 632.342 474 657.049 474 682L527.851 682C527.851 664.121 531.373 646.416 538.215 629.898C545.057 613.38 555.086 598.371 567.728 585.728C580.371 573.086 595.38 563.057 611.898 556.215C628.416 549.373 646.121 545.851 664 545.851V492Z" fill="white"/>
<path d="M689 492C713.951 492 738.658 496.914 761.71 506.463C784.762 516.011 805.707 530.007 823.35 547.65C840.993 565.293 854.989 586.238 864.537 609.29C874.086 632.342 879 657.049 879 682L825.149 682C825.149 664.121 821.627 646.416 814.785 629.898C807.943 613.38 797.914 598.371 785.272 585.728C772.629 573.086 757.62 563.057 741.102 556.215C724.584 549.373 706.879 545.851 689 545.851V492Z" fill="white"/>
<path d="M1064 512C1064 487.049 1059.09 462.342 1049.54 439.29C1039.99 416.238 1025.99 395.293 1008.35 377.65C990.707 360.007 969.762 346.011 946.71 336.463C923.658 326.914 898.951 322 874 322C849.049 322 824.342 326.914 801.29 336.463C778.238 346.011 757.293 360.007 739.65 377.65C722.007 395.293 708.011 416.238 698.463 439.29C688.914 462.342 684 487.049 684 512H737.851C737.851 494.121 741.373 476.416 748.215 459.898C755.057 443.38 765.086 428.371 777.728 415.728C790.371 403.086 805.38 393.057 821.898 386.215C838.416 379.373 856.121 375.851 874 375.851C891.879 375.851 909.584 379.373 926.102 386.215C942.62 393.057 957.629 403.086 970.272 415.728C982.914 428.371 992.943 443.38 999.785 459.898C1006.63 476.416 1010.15 494.121 1010.15 512H1064Z" fill="white"/>
<path d="M672 512C672 487.049 667.086 462.342 657.537 439.29C647.989 416.238 633.993 395.293 616.35 377.65C598.707 360.007 577.762 346.011 554.71 336.463C531.658 326.914 506.951 322 482 322C457.049 322 432.342 326.914 409.29 336.463C386.238 346.011 365.293 360.007 347.65 377.65C330.007 395.293 316.011 416.238 306.463 439.29C296.914 462.342 292 487.049 292 512H345.851C345.851 494.121 349.373 476.416 356.215 459.898C363.057 443.38 373.086 428.371 385.728 415.728C398.371 403.086 413.38 393.057 429.898 386.215C446.416 379.373 464.121 375.851 482 375.851C499.879 375.851 517.584 379.373 534.102 386.215C550.62 393.057 565.629 403.086 578.272 415.728C590.914 428.371 600.943 443.38 607.785 459.898C614.627 476.416 618.149 494.121 618.149 512H672Z" fill="white"/>
<path d="M869 345C869 320.049 864.086 295.342 854.537 272.29C844.989 249.238 830.993 228.293 813.35 210.65C795.707 193.007 774.762 179.011 751.71 169.463C728.658 159.914 703.951 155 679 155C654.049 155 629.342 159.914 606.29 169.463C583.238 179.011 562.293 193.007 544.65 210.65C527.007 228.293 513.011 249.238 503.463 272.29C493.914 295.342 489 320.049 489 345H542.851C542.851 327.121 546.373 309.416 553.215 292.898C560.057 276.38 570.086 261.371 582.728 248.728C595.371 236.086 610.38 226.057 626.898 219.215C643.416 212.373 661.121 208.851 679 208.851C696.879 208.851 714.584 212.373 731.102 219.215C747.62 226.057 762.629 236.086 775.272 248.728C787.914 261.371 797.943 276.38 804.785 292.898C811.627 309.416 815.149 327.121 815.149 345H869Z" fill="white"/>
<path d="M1231 682C1231 657.049 1226.09 632.342 1216.54 609.29C1206.99 586.238 1192.99 565.293 1175.35 547.65C1157.71 530.007 1136.76 516.011 1113.71 506.463C1090.66 496.914 1065.95 492 1041 492C1016.05 492 991.342 496.914 968.29 506.463C945.238 516.011 924.293 530.007 906.65 547.65C889.007 565.293 875.011 586.238 865.463 609.29C855.914 632.342 851 657.049 851 682H904.851C904.851 664.121 908.373 646.416 915.215 629.898C922.057 613.38 932.086 598.371 944.728 585.728C957.371 573.086 972.38 563.057 988.898 556.215C1005.42 549.373 1023.12 545.851 1041 545.851C1058.88 545.851 1076.58 549.373 1093.1 556.215C1109.62 563.057 1124.63 573.086 1137.27 585.728C1149.91 598.371 1159.94 613.38 1166.79 629.898C1173.63 646.416 1177.15 664.121 1177.15 682H1231Z" fill="white"/>
<rect x="527" y="571" width="52" height="631" fill="white"/>
<rect x="620" y="507" width="52" height="695" fill="white"/>
<rect x="684" y="510" width="52" height="692" fill="white"/>
<rect x="774" y="558" width="52" height="644" fill="white"/>
<rect x="774" y="1151" width="281" height="51" fill="white"/>
<rect x="298" y="1151" width="281" height="51" fill="white"/>
</svg>
